<mxfile host="app.diagrams.net" modified="2024-06-24T18:11:45.648Z" agent="Mozilla/5.0 (Windows NT 10.0; Win64; x64) AppleWebKit/537.36 (KHTML, like Gecko) Chrome/126.0.0.0 Safari/537.36" etag="At8nEhUM1WB_gaoY1pu3" version="24.6.2" type="device">
  <diagram name="Page-1" id="2YBvvXClWsGukQMizWep">
    <mxGraphModel dx="2143" dy="515" grid="1" gridSize="10" guides="1" tooltips="1" connect="1" arrows="1" fold="1" page="1" pageScale="1" pageWidth="850" pageHeight="1100" math="0" shadow="0">
      <root>
        <mxCell id="0" />
        <mxCell id="1" parent="0" />
        <mxCell id="BKiBQ52J1VdA8qQZ-0-i-29" value="&lt;font style=&quot;font-size: 10px;&quot;&gt;1: create(exchangeDTO): &lt;br&gt;List&amp;lt;Exchange&amp;gt;&lt;/font&gt;" style="html=1;verticalAlign=bottom;endArrow=block;curved=0;rounded=0;" edge="1" parent="1">
          <mxGeometry x="0.04" y="-30" width="80" relative="1" as="geometry">
            <mxPoint x="-15" y="110" as="sourcePoint" />
            <mxPoint x="110" y="110" as="targetPoint" />
            <mxPoint as="offset" />
            <Array as="points">
              <mxPoint x="60" y="110" />
            </Array>
          </mxGeometry>
        </mxCell>
        <mxCell id="BKiBQ52J1VdA8qQZ-0-i-1" value="sd" style="shape=umlFrame;whiteSpace=wrap;html=1;pointerEvents=0;" vertex="1" parent="1">
          <mxGeometry x="-90" width="1330" height="800" as="geometry" />
        </mxCell>
        <mxCell id="BKiBQ52J1VdA8qQZ-0-i-5" value=":ExchangeController" style="text;html=1;align=center;verticalAlign=middle;resizable=0;points=[];autosize=1;strokeColor=none;fillColor=none;" vertex="1" parent="1">
          <mxGeometry x="50" y="10" width="130" height="30" as="geometry" />
        </mxCell>
        <mxCell id="BKiBQ52J1VdA8qQZ-0-i-6" value="" style="shape=umlLifeline;perimeter=lifelinePerimeter;whiteSpace=wrap;html=1;container=1;dropTarget=0;collapsible=0;recursiveResize=0;outlineConnect=0;portConstraint=eastwest;newEdgeStyle={&quot;curved&quot;:0,&quot;rounded&quot;:0};participant=umlControl;" vertex="1" parent="1">
          <mxGeometry x="240" y="40" width="40" height="750" as="geometry" />
        </mxCell>
        <mxCell id="BKiBQ52J1VdA8qQZ-0-i-25" value="" style="html=1;points=[[0,0,0,0,5],[0,1,0,0,-5],[1,0,0,0,5],[1,1,0,0,-5]];perimeter=orthogonalPerimeter;outlineConnect=0;targetShapes=umlLifeline;portConstraint=eastwest;newEdgeStyle={&quot;curved&quot;:0,&quot;rounded&quot;:0};" vertex="1" parent="BKiBQ52J1VdA8qQZ-0-i-6">
          <mxGeometry x="15" y="70" width="10" height="680" as="geometry" />
        </mxCell>
        <mxCell id="BKiBQ52J1VdA8qQZ-0-i-92" value="" style="html=1;points=[[0,0,0,0,5],[0,1,0,0,-5],[1,0,0,0,5],[1,1,0,0,-5]];perimeter=orthogonalPerimeter;outlineConnect=0;targetShapes=umlLifeline;portConstraint=eastwest;newEdgeStyle={&quot;curved&quot;:0,&quot;rounded&quot;:0};" vertex="1" parent="BKiBQ52J1VdA8qQZ-0-i-6">
          <mxGeometry x="20" y="720" width="10" height="30" as="geometry" />
        </mxCell>
        <mxCell id="BKiBQ52J1VdA8qQZ-0-i-94" style="edgeStyle=orthogonalEdgeStyle;rounded=0;orthogonalLoop=1;jettySize=auto;html=1;curved=0;entryX=1;entryY=0;entryDx=0;entryDy=5;entryPerimeter=0;" edge="1" parent="BKiBQ52J1VdA8qQZ-0-i-6" source="BKiBQ52J1VdA8qQZ-0-i-25" target="BKiBQ52J1VdA8qQZ-0-i-92">
          <mxGeometry relative="1" as="geometry">
            <Array as="points">
              <mxPoint x="60" y="715" />
              <mxPoint x="60" y="725" />
            </Array>
          </mxGeometry>
        </mxCell>
        <mxCell id="BKiBQ52J1VdA8qQZ-0-i-95" value="&lt;span style=&quot;font-size: 10px;&quot;&gt;1.1.8:&amp;nbsp;getAllExchangesByUserId(userId): &lt;br&gt;List&amp;lt;Exchange&amp;gt;&lt;/span&gt;" style="edgeLabel;html=1;align=center;verticalAlign=middle;resizable=0;points=[];" vertex="1" connectable="0" parent="BKiBQ52J1VdA8qQZ-0-i-94">
          <mxGeometry x="0.0361" relative="1" as="geometry">
            <mxPoint x="95" y="-1" as="offset" />
          </mxGeometry>
        </mxCell>
        <mxCell id="BKiBQ52J1VdA8qQZ-0-i-7" value=":ExchangeServiceImpl" style="text;html=1;align=center;verticalAlign=middle;resizable=0;points=[];autosize=1;strokeColor=none;fillColor=none;" vertex="1" parent="1">
          <mxGeometry x="190" y="10" width="140" height="30" as="geometry" />
        </mxCell>
        <mxCell id="BKiBQ52J1VdA8qQZ-0-i-8" value="" style="shape=umlLifeline;perimeter=lifelinePerimeter;whiteSpace=wrap;html=1;container=1;dropTarget=0;collapsible=0;recursiveResize=0;outlineConnect=0;portConstraint=eastwest;newEdgeStyle={&quot;curved&quot;:0,&quot;rounded&quot;:0};participant=umlControl;" vertex="1" parent="1">
          <mxGeometry x="380" y="40" width="40" height="630" as="geometry" />
        </mxCell>
        <mxCell id="BKiBQ52J1VdA8qQZ-0-i-31" value="" style="html=1;points=[[0,0,0,0,5],[0,1,0,0,-5],[1,0,0,0,5],[1,1,0,0,-5]];perimeter=orthogonalPerimeter;outlineConnect=0;targetShapes=umlLifeline;portConstraint=eastwest;newEdgeStyle={&quot;curved&quot;:0,&quot;rounded&quot;:0};" vertex="1" parent="BKiBQ52J1VdA8qQZ-0-i-8">
          <mxGeometry x="15" y="80" width="10" height="50" as="geometry" />
        </mxCell>
        <mxCell id="BKiBQ52J1VdA8qQZ-0-i-75" value="" style="html=1;points=[[0,0,0,0,5],[0,1,0,0,-5],[1,0,0,0,5],[1,1,0,0,-5]];perimeter=orthogonalPerimeter;outlineConnect=0;targetShapes=umlLifeline;portConstraint=eastwest;newEdgeStyle={&quot;curved&quot;:0,&quot;rounded&quot;:0};" vertex="1" parent="BKiBQ52J1VdA8qQZ-0-i-8">
          <mxGeometry x="15" y="570" width="10" height="50" as="geometry" />
        </mxCell>
        <mxCell id="BKiBQ52J1VdA8qQZ-0-i-9" value=":WalletServiceImpl" style="text;html=1;align=center;verticalAlign=middle;resizable=0;points=[];autosize=1;strokeColor=none;fillColor=none;" vertex="1" parent="1">
          <mxGeometry x="340" y="10" width="120" height="30" as="geometry" />
        </mxCell>
        <mxCell id="BKiBQ52J1VdA8qQZ-0-i-11" value="" style="shape=umlLifeline;perimeter=lifelinePerimeter;whiteSpace=wrap;html=1;container=1;dropTarget=0;collapsible=0;recursiveResize=0;outlineConnect=0;portConstraint=eastwest;newEdgeStyle={&quot;curved&quot;:0,&quot;rounded&quot;:0};participant=umlControl;" vertex="1" parent="1">
          <mxGeometry x="525" y="40" width="40" height="570" as="geometry" />
        </mxCell>
        <mxCell id="BKiBQ52J1VdA8qQZ-0-i-44" value="" style="html=1;points=[[0,0,0,0,5],[0,1,0,0,-5],[1,0,0,0,5],[1,1,0,0,-5]];perimeter=orthogonalPerimeter;outlineConnect=0;targetShapes=umlLifeline;portConstraint=eastwest;newEdgeStyle={&quot;curved&quot;:0,&quot;rounded&quot;:0};" vertex="1" parent="BKiBQ52J1VdA8qQZ-0-i-11">
          <mxGeometry x="15" y="210" width="10" height="50" as="geometry" />
        </mxCell>
        <mxCell id="BKiBQ52J1VdA8qQZ-0-i-68" style="edgeStyle=orthogonalEdgeStyle;rounded=0;orthogonalLoop=1;jettySize=auto;html=1;curved=0;exitX=1;exitY=0;exitDx=0;exitDy=5;exitPerimeter=0;entryX=1;entryY=0;entryDx=0;entryDy=5;entryPerimeter=0;" edge="1" parent="BKiBQ52J1VdA8qQZ-0-i-11" source="BKiBQ52J1VdA8qQZ-0-i-62" target="BKiBQ52J1VdA8qQZ-0-i-66">
          <mxGeometry relative="1" as="geometry">
            <Array as="points">
              <mxPoint x="55" y="465" />
              <mxPoint x="55" y="495" />
            </Array>
          </mxGeometry>
        </mxCell>
        <mxCell id="BKiBQ52J1VdA8qQZ-0-i-70" value="&lt;span style=&quot;font-size: 10px;&quot;&gt;1.1.4.1: saving = getBySavingId&lt;br&gt;(exchangeDTO.getDestinationId()): Saving&lt;/span&gt;" style="edgeLabel;html=1;align=center;verticalAlign=middle;resizable=0;points=[];" vertex="1" connectable="0" parent="BKiBQ52J1VdA8qQZ-0-i-68">
          <mxGeometry x="-0.302" y="-3" relative="1" as="geometry">
            <mxPoint x="73" y="12" as="offset" />
          </mxGeometry>
        </mxCell>
        <mxCell id="BKiBQ52J1VdA8qQZ-0-i-62" value="" style="html=1;points=[[0,0,0,0,5],[0,1,0,0,-5],[1,0,0,0,5],[1,1,0,0,-5]];perimeter=orthogonalPerimeter;outlineConnect=0;targetShapes=umlLifeline;portConstraint=eastwest;newEdgeStyle={&quot;curved&quot;:0,&quot;rounded&quot;:0};" vertex="1" parent="BKiBQ52J1VdA8qQZ-0-i-11">
          <mxGeometry x="15" y="460" width="10" height="100" as="geometry" />
        </mxCell>
        <mxCell id="BKiBQ52J1VdA8qQZ-0-i-66" value="" style="html=1;points=[[0,0,0,0,5],[0,1,0,0,-5],[1,0,0,0,5],[1,1,0,0,-5]];perimeter=orthogonalPerimeter;outlineConnect=0;targetShapes=umlLifeline;portConstraint=eastwest;newEdgeStyle={&quot;curved&quot;:0,&quot;rounded&quot;:0};" vertex="1" parent="BKiBQ52J1VdA8qQZ-0-i-11">
          <mxGeometry x="20" y="490" width="10" height="40" as="geometry" />
        </mxCell>
        <mxCell id="BKiBQ52J1VdA8qQZ-0-i-12" value=":SavingServiceImpl" style="text;html=1;align=center;verticalAlign=middle;resizable=0;points=[];autosize=1;strokeColor=none;fillColor=none;" vertex="1" parent="1">
          <mxGeometry x="480" y="10" width="130" height="30" as="geometry" />
        </mxCell>
        <mxCell id="BKiBQ52J1VdA8qQZ-0-i-13" value="" style="shape=umlLifeline;perimeter=lifelinePerimeter;whiteSpace=wrap;html=1;container=1;dropTarget=0;collapsible=0;recursiveResize=0;outlineConnect=0;portConstraint=eastwest;newEdgeStyle={&quot;curved&quot;:0,&quot;rounded&quot;:0};participant=umlEntity;" vertex="1" parent="1">
          <mxGeometry x="675" y="40" width="40" height="390" as="geometry" />
        </mxCell>
        <mxCell id="BKiBQ52J1VdA8qQZ-0-i-55" value="" style="html=1;points=[[0,0,0,0,5],[0,1,0,0,-5],[1,0,0,0,5],[1,1,0,0,-5]];perimeter=orthogonalPerimeter;outlineConnect=0;targetShapes=umlLifeline;portConstraint=eastwest;newEdgeStyle={&quot;curved&quot;:0,&quot;rounded&quot;:0};" vertex="1" parent="BKiBQ52J1VdA8qQZ-0-i-13">
          <mxGeometry x="15" y="340" width="10" height="40" as="geometry" />
        </mxCell>
        <mxCell id="BKiBQ52J1VdA8qQZ-0-i-14" value=":ExchangeTypeRepo" style="text;html=1;align=center;verticalAlign=middle;resizable=0;points=[];autosize=1;strokeColor=none;fillColor=none;" vertex="1" parent="1">
          <mxGeometry x="630" y="8" width="130" height="30" as="geometry" />
        </mxCell>
        <mxCell id="BKiBQ52J1VdA8qQZ-0-i-15" value="" style="shape=umlLifeline;perimeter=lifelinePerimeter;whiteSpace=wrap;html=1;container=1;dropTarget=0;collapsible=0;recursiveResize=0;outlineConnect=0;portConstraint=eastwest;newEdgeStyle={&quot;curved&quot;:0,&quot;rounded&quot;:0};participant=umlEntity;" vertex="1" parent="1">
          <mxGeometry x="815" y="40" width="40" height="620" as="geometry" />
        </mxCell>
        <mxCell id="BKiBQ52J1VdA8qQZ-0-i-33" value="" style="html=1;points=[[0,0,0,0,5],[0,1,0,0,-5],[1,0,0,0,5],[1,1,0,0,-5]];perimeter=orthogonalPerimeter;outlineConnect=0;targetShapes=umlLifeline;portConstraint=eastwest;newEdgeStyle={&quot;curved&quot;:0,&quot;rounded&quot;:0};" vertex="1" parent="BKiBQ52J1VdA8qQZ-0-i-15">
          <mxGeometry x="15" y="90" width="10" height="30" as="geometry" />
        </mxCell>
        <mxCell id="BKiBQ52J1VdA8qQZ-0-i-78" value="" style="html=1;points=[[0,0,0,0,5],[0,1,0,0,-5],[1,0,0,0,5],[1,1,0,0,-5]];perimeter=orthogonalPerimeter;outlineConnect=0;targetShapes=umlLifeline;portConstraint=eastwest;newEdgeStyle={&quot;curved&quot;:0,&quot;rounded&quot;:0};" vertex="1" parent="BKiBQ52J1VdA8qQZ-0-i-15">
          <mxGeometry x="15" y="575" width="10" height="40" as="geometry" />
        </mxCell>
        <mxCell id="BKiBQ52J1VdA8qQZ-0-i-16" value=":WalletRepository" style="text;html=1;align=center;verticalAlign=middle;resizable=0;points=[];autosize=1;strokeColor=none;fillColor=none;" vertex="1" parent="1">
          <mxGeometry x="775" y="8" width="120" height="30" as="geometry" />
        </mxCell>
        <mxCell id="BKiBQ52J1VdA8qQZ-0-i-17" value="" style="shape=umlLifeline;perimeter=lifelinePerimeter;whiteSpace=wrap;html=1;container=1;dropTarget=0;collapsible=0;recursiveResize=0;outlineConnect=0;portConstraint=eastwest;newEdgeStyle={&quot;curved&quot;:0,&quot;rounded&quot;:0};participant=umlEntity;" vertex="1" parent="1">
          <mxGeometry x="955" y="40" width="40" height="570" as="geometry" />
        </mxCell>
        <mxCell id="BKiBQ52J1VdA8qQZ-0-i-45" value="" style="html=1;points=[[0,0,0,0,5],[0,1,0,0,-5],[1,0,0,0,5],[1,1,0,0,-5]];perimeter=orthogonalPerimeter;outlineConnect=0;targetShapes=umlLifeline;portConstraint=eastwest;newEdgeStyle={&quot;curved&quot;:0,&quot;rounded&quot;:0};" vertex="1" parent="BKiBQ52J1VdA8qQZ-0-i-17">
          <mxGeometry x="15" y="220" width="10" height="30" as="geometry" />
        </mxCell>
        <mxCell id="BKiBQ52J1VdA8qQZ-0-i-71" value="" style="html=1;points=[[0,0,0,0,5],[0,1,0,0,-5],[1,0,0,0,5],[1,1,0,0,-5]];perimeter=orthogonalPerimeter;outlineConnect=0;targetShapes=umlLifeline;portConstraint=eastwest;newEdgeStyle={&quot;curved&quot;:0,&quot;rounded&quot;:0};" vertex="1" parent="BKiBQ52J1VdA8qQZ-0-i-17">
          <mxGeometry x="15" y="540" width="10" height="20" as="geometry" />
        </mxCell>
        <mxCell id="BKiBQ52J1VdA8qQZ-0-i-18" value=":SavingRepo" style="text;html=1;align=center;verticalAlign=middle;resizable=0;points=[];autosize=1;strokeColor=none;fillColor=none;" vertex="1" parent="1">
          <mxGeometry x="930" y="8" width="90" height="30" as="geometry" />
        </mxCell>
        <mxCell id="BKiBQ52J1VdA8qQZ-0-i-19" value="" style="shape=umlLifeline;perimeter=lifelinePerimeter;whiteSpace=wrap;html=1;container=1;dropTarget=0;collapsible=0;recursiveResize=0;outlineConnect=0;portConstraint=eastwest;newEdgeStyle={&quot;curved&quot;:0,&quot;rounded&quot;:0};participant=umlEntity;" vertex="1" parent="1">
          <mxGeometry x="1105" y="40" width="40" height="720" as="geometry" />
        </mxCell>
        <mxCell id="BKiBQ52J1VdA8qQZ-0-i-90" value="" style="html=1;points=[[0,0,0,0,5],[0,1,0,0,-5],[1,0,0,0,5],[1,1,0,0,-5]];perimeter=orthogonalPerimeter;outlineConnect=0;targetShapes=umlLifeline;portConstraint=eastwest;newEdgeStyle={&quot;curved&quot;:0,&quot;rounded&quot;:0};" vertex="1" parent="BKiBQ52J1VdA8qQZ-0-i-19">
          <mxGeometry x="15" y="680" width="10" height="20" as="geometry" />
        </mxCell>
        <mxCell id="BKiBQ52J1VdA8qQZ-0-i-20" value=":ExchangeRepo" style="text;html=1;align=center;verticalAlign=middle;resizable=0;points=[];autosize=1;strokeColor=none;fillColor=none;" vertex="1" parent="1">
          <mxGeometry x="1070" y="8" width="110" height="30" as="geometry" />
        </mxCell>
        <mxCell id="BKiBQ52J1VdA8qQZ-0-i-27" value="" style="shape=umlLifeline;perimeter=lifelinePerimeter;whiteSpace=wrap;html=1;container=1;dropTarget=0;collapsible=0;recursiveResize=0;outlineConnect=0;portConstraint=eastwest;newEdgeStyle={&quot;curved&quot;:0,&quot;rounded&quot;:0};participant=umlActor;" vertex="1" parent="1">
          <mxGeometry x="-30" y="40" width="20" height="750" as="geometry" />
        </mxCell>
        <mxCell id="BKiBQ52J1VdA8qQZ-0-i-28" value="" style="html=1;points=[[0,0,0,0,5],[0,1,0,0,-5],[1,0,0,0,5],[1,1,0,0,-5]];perimeter=orthogonalPerimeter;outlineConnect=0;targetShapes=umlLifeline;portConstraint=eastwest;newEdgeStyle={&quot;curved&quot;:0,&quot;rounded&quot;:0};" vertex="1" parent="BKiBQ52J1VdA8qQZ-0-i-27">
          <mxGeometry x="5" y="50" width="10" height="700" as="geometry" />
        </mxCell>
        <mxCell id="BKiBQ52J1VdA8qQZ-0-i-4" value="" style="shape=umlLifeline;perimeter=lifelinePerimeter;whiteSpace=wrap;html=1;container=1;dropTarget=0;collapsible=0;recursiveResize=0;outlineConnect=0;portConstraint=eastwest;newEdgeStyle={&quot;curved&quot;:0,&quot;rounded&quot;:0};participant=umlBoundary;" vertex="1" parent="1">
          <mxGeometry x="90" y="40" width="50" height="750" as="geometry" />
        </mxCell>
        <mxCell id="BKiBQ52J1VdA8qQZ-0-i-24" value="" style="html=1;points=[[0,0,0,0,5],[0,1,0,0,-5],[1,0,0,0,5],[1,1,0,0,-5]];perimeter=orthogonalPerimeter;outlineConnect=0;targetShapes=umlLifeline;portConstraint=eastwest;newEdgeStyle={&quot;curved&quot;:0,&quot;rounded&quot;:0};" vertex="1" parent="BKiBQ52J1VdA8qQZ-0-i-4">
          <mxGeometry x="20" y="60" width="10" height="690" as="geometry" />
        </mxCell>
        <mxCell id="BKiBQ52J1VdA8qQZ-0-i-26" value="&lt;font style=&quot;font-size: 9px;&quot;&gt;1.1: createWalletSavingExchange&lt;br&gt;(exchangeDTO): List&amp;lt;Exchange&amp;gt;&lt;/font&gt;" style="html=1;verticalAlign=bottom;endArrow=block;curved=0;rounded=0;entryX=0;entryY=0;entryDx=0;entryDy=5;entryPerimeter=0;" edge="1" parent="1" source="BKiBQ52J1VdA8qQZ-0-i-24" target="BKiBQ52J1VdA8qQZ-0-i-25">
          <mxGeometry x="0.037" y="-35" width="80" relative="1" as="geometry">
            <mxPoint x="140" y="120" as="sourcePoint" />
            <mxPoint x="220" y="120" as="targetPoint" />
            <mxPoint as="offset" />
          </mxGeometry>
        </mxCell>
        <mxCell id="BKiBQ52J1VdA8qQZ-0-i-30" value="&lt;font style=&quot;font-size: 10px;&quot;&gt;1.1.1: wallet = getWalletById (walletId): Wallet&lt;/font&gt;" style="html=1;verticalAlign=bottom;endArrow=block;curved=0;rounded=0;entryX=0;entryY=0;entryDx=0;entryDy=5;entryPerimeter=0;" edge="1" parent="1" source="BKiBQ52J1VdA8qQZ-0-i-25" target="BKiBQ52J1VdA8qQZ-0-i-31">
          <mxGeometry x="0.6154" y="5" width="80" relative="1" as="geometry">
            <mxPoint x="270" y="120" as="sourcePoint" />
            <mxPoint x="399.99999999999955" y="120" as="targetPoint" />
            <mxPoint as="offset" />
          </mxGeometry>
        </mxCell>
        <mxCell id="BKiBQ52J1VdA8qQZ-0-i-34" value="&lt;font style=&quot;font-size: 10px;&quot;&gt;1.1.1.1: findById(id): Wallet&lt;/font&gt;" style="html=1;verticalAlign=bottom;endArrow=block;curved=0;rounded=0;entryX=0;entryY=0;entryDx=0;entryDy=5;entryPerimeter=0;" edge="1" parent="1" source="BKiBQ52J1VdA8qQZ-0-i-31" target="BKiBQ52J1VdA8qQZ-0-i-33">
          <mxGeometry x="0.1538" y="5" width="80" relative="1" as="geometry">
            <mxPoint x="420" y="135" as="sourcePoint" />
            <mxPoint x="550" y="135" as="targetPoint" />
            <mxPoint as="offset" />
          </mxGeometry>
        </mxCell>
        <mxCell id="BKiBQ52J1VdA8qQZ-0-i-36" value="" style="html=1;verticalAlign=bottom;endArrow=open;dashed=1;endSize=8;curved=0;rounded=0;exitX=0;exitY=1;exitDx=0;exitDy=-5;exitPerimeter=0;" edge="1" parent="1" source="BKiBQ52J1VdA8qQZ-0-i-33" target="BKiBQ52J1VdA8qQZ-0-i-31">
          <mxGeometry relative="1" as="geometry">
            <mxPoint x="670" y="160" as="sourcePoint" />
            <mxPoint x="590" y="160" as="targetPoint" />
          </mxGeometry>
        </mxCell>
        <mxCell id="BKiBQ52J1VdA8qQZ-0-i-37" value=":User" style="text;html=1;align=center;verticalAlign=middle;resizable=0;points=[];autosize=1;strokeColor=none;fillColor=none;" vertex="1" parent="1">
          <mxGeometry x="-45" y="10" width="50" height="30" as="geometry" />
        </mxCell>
        <mxCell id="BKiBQ52J1VdA8qQZ-0-i-38" value="" style="html=1;verticalAlign=bottom;endArrow=open;dashed=1;endSize=8;curved=0;rounded=0;exitX=0;exitY=1;exitDx=0;exitDy=-5;exitPerimeter=0;" edge="1" parent="1" source="BKiBQ52J1VdA8qQZ-0-i-31" target="BKiBQ52J1VdA8qQZ-0-i-25">
          <mxGeometry relative="1" as="geometry">
            <mxPoint x="525" y="175" as="sourcePoint" />
            <mxPoint x="100" y="175" as="targetPoint" />
          </mxGeometry>
        </mxCell>
        <mxCell id="BKiBQ52J1VdA8qQZ-0-i-39" value="alt" style="shape=umlFrame;whiteSpace=wrap;html=1;pointerEvents=0;width=50;height=20;" vertex="1" parent="1">
          <mxGeometry x="-70" y="180" width="390" height="70" as="geometry" />
        </mxCell>
        <mxCell id="BKiBQ52J1VdA8qQZ-0-i-40" value="" style="html=1;verticalAlign=bottom;endArrow=open;dashed=1;endSize=8;curved=0;rounded=0;" edge="1" parent="1">
          <mxGeometry relative="1" as="geometry">
            <mxPoint x="255" y="190" as="sourcePoint" />
            <mxPoint x="120" y="190" as="targetPoint" />
          </mxGeometry>
        </mxCell>
        <mxCell id="BKiBQ52J1VdA8qQZ-0-i-41" value="&lt;font style=&quot;font-size: 9px;&quot;&gt;(wallet == null || wallet.getAmount()&lt;br&gt;&amp;nbsp;&amp;lt; exchangeDTO.getAmount()&lt;br&gt;|| wallet.getType() == &#39;credit&#39;)&lt;/font&gt;" style="text;html=1;align=center;verticalAlign=middle;resizable=0;points=[];autosize=1;strokeColor=none;fillColor=none;" vertex="1" parent="1">
          <mxGeometry x="-30" y="170" width="160" height="60" as="geometry" />
        </mxCell>
        <mxCell id="BKiBQ52J1VdA8qQZ-0-i-42" value="" style="html=1;verticalAlign=bottom;endArrow=open;dashed=1;endSize=8;curved=0;rounded=0;" edge="1" parent="1" source="BKiBQ52J1VdA8qQZ-0-i-24">
          <mxGeometry relative="1" as="geometry">
            <mxPoint x="105" y="234.89" as="sourcePoint" />
            <mxPoint x="-15" y="234.89" as="targetPoint" />
            <Array as="points">
              <mxPoint x="45" y="234.89" />
            </Array>
          </mxGeometry>
        </mxCell>
        <mxCell id="BKiBQ52J1VdA8qQZ-0-i-43" value="&lt;font style=&quot;font-size: 10px;&quot;&gt;1.1.2: saving = getSavingById (savingId): Saving&lt;/font&gt;" style="html=1;verticalAlign=bottom;endArrow=block;curved=0;rounded=0;entryX=0;entryY=0;entryDx=0;entryDy=5;entryPerimeter=0;" edge="1" parent="1" source="BKiBQ52J1VdA8qQZ-0-i-25" target="BKiBQ52J1VdA8qQZ-0-i-44">
          <mxGeometry x="0.2454" y="3" width="80" relative="1" as="geometry">
            <mxPoint x="270" y="270" as="sourcePoint" />
            <mxPoint x="510" y="251" as="targetPoint" />
            <mxPoint as="offset" />
          </mxGeometry>
        </mxCell>
        <mxCell id="BKiBQ52J1VdA8qQZ-0-i-46" value="&lt;font style=&quot;font-size: 10px;&quot;&gt;1.1.2.1: findById(id): Saving&lt;/font&gt;" style="html=1;verticalAlign=bottom;endArrow=block;curved=0;rounded=0;entryX=0.016;entryY=0.006;entryDx=0;entryDy=0;entryPerimeter=0;" edge="1" parent="1" source="BKiBQ52J1VdA8qQZ-0-i-44" target="BKiBQ52J1VdA8qQZ-0-i-45">
          <mxGeometry x="0.1538" y="5" width="80" relative="1" as="geometry">
            <mxPoint x="550" y="260" as="sourcePoint" />
            <mxPoint x="975" y="260" as="targetPoint" />
            <mxPoint as="offset" />
          </mxGeometry>
        </mxCell>
        <mxCell id="BKiBQ52J1VdA8qQZ-0-i-47" value="" style="html=1;verticalAlign=bottom;endArrow=open;dashed=1;endSize=8;curved=0;rounded=0;exitX=-0.02;exitY=1;exitDx=0;exitDy=0;exitPerimeter=0;" edge="1" parent="1" source="BKiBQ52J1VdA8qQZ-0-i-45" target="BKiBQ52J1VdA8qQZ-0-i-44">
          <mxGeometry relative="1" as="geometry">
            <mxPoint x="970" y="290" as="sourcePoint" />
            <mxPoint x="560" y="290" as="targetPoint" />
          </mxGeometry>
        </mxCell>
        <mxCell id="BKiBQ52J1VdA8qQZ-0-i-48" value="" style="html=1;verticalAlign=bottom;endArrow=open;dashed=1;endSize=8;curved=0;rounded=0;exitX=0;exitY=1;exitDx=0;exitDy=-5;exitPerimeter=0;" edge="1" parent="1" source="BKiBQ52J1VdA8qQZ-0-i-44" target="BKiBQ52J1VdA8qQZ-0-i-25">
          <mxGeometry relative="1" as="geometry">
            <mxPoint x="450" y="300" as="sourcePoint" />
            <mxPoint x="320" y="300" as="targetPoint" />
          </mxGeometry>
        </mxCell>
        <mxCell id="BKiBQ52J1VdA8qQZ-0-i-49" value="alt" style="shape=umlFrame;whiteSpace=wrap;html=1;pointerEvents=0;width=50;height=20;" vertex="1" parent="1">
          <mxGeometry x="-70" y="310" width="390" height="60" as="geometry" />
        </mxCell>
        <mxCell id="BKiBQ52J1VdA8qQZ-0-i-50" value="&lt;font style=&quot;font-size: 10px;&quot;&gt;(saving == null)&lt;/font&gt;" style="text;html=1;align=center;verticalAlign=middle;resizable=0;points=[];autosize=1;strokeColor=none;fillColor=none;" vertex="1" parent="1">
          <mxGeometry x="-20" y="310" width="90" height="30" as="geometry" />
        </mxCell>
        <mxCell id="BKiBQ52J1VdA8qQZ-0-i-51" value="" style="html=1;verticalAlign=bottom;endArrow=open;dashed=1;endSize=8;curved=0;rounded=0;" edge="1" parent="1">
          <mxGeometry relative="1" as="geometry">
            <mxPoint x="255" y="324.62" as="sourcePoint" />
            <mxPoint x="120" y="324.62" as="targetPoint" />
          </mxGeometry>
        </mxCell>
        <mxCell id="BKiBQ52J1VdA8qQZ-0-i-54" value="" style="html=1;verticalAlign=bottom;endArrow=open;dashed=1;endSize=8;curved=0;rounded=0;exitX=0;exitY=0.41;exitDx=0;exitDy=0;exitPerimeter=0;" edge="1" parent="1" source="BKiBQ52J1VdA8qQZ-0-i-24" target="BKiBQ52J1VdA8qQZ-0-i-28">
          <mxGeometry relative="1" as="geometry">
            <mxPoint x="115" y="350" as="sourcePoint" />
            <mxPoint x="-20" y="350" as="targetPoint" />
          </mxGeometry>
        </mxCell>
        <mxCell id="BKiBQ52J1VdA8qQZ-0-i-56" value="&lt;font style=&quot;font-size: 10px;&quot;&gt;1.1.3: exchangeType = findById (exchangeDTO.getExchangeTypeId()): ExchangeType&lt;/font&gt;" style="html=1;verticalAlign=bottom;endArrow=block;curved=0;rounded=0;entryX=0;entryY=0;entryDx=0;entryDy=5;entryPerimeter=0;" edge="1" parent="1" source="BKiBQ52J1VdA8qQZ-0-i-25" target="BKiBQ52J1VdA8qQZ-0-i-55">
          <mxGeometry x="0.2454" y="3" width="80" relative="1" as="geometry">
            <mxPoint x="262.5" y="400" as="sourcePoint" />
            <mxPoint x="537.5" y="400" as="targetPoint" />
            <mxPoint as="offset" />
          </mxGeometry>
        </mxCell>
        <mxCell id="BKiBQ52J1VdA8qQZ-0-i-57" value="" style="html=1;verticalAlign=bottom;endArrow=open;dashed=1;endSize=8;curved=0;rounded=0;exitX=0;exitY=1;exitDx=0;exitDy=-5;exitPerimeter=0;" edge="1" parent="1" source="BKiBQ52J1VdA8qQZ-0-i-55" target="BKiBQ52J1VdA8qQZ-0-i-25">
          <mxGeometry relative="1" as="geometry">
            <mxPoint x="595" y="430" as="sourcePoint" />
            <mxPoint x="320" y="430" as="targetPoint" />
          </mxGeometry>
        </mxCell>
        <mxCell id="BKiBQ52J1VdA8qQZ-0-i-58" value="alt" style="shape=umlFrame;whiteSpace=wrap;html=1;pointerEvents=0;width=50;height=20;" vertex="1" parent="1">
          <mxGeometry x="-70" y="430" width="390" height="60" as="geometry" />
        </mxCell>
        <mxCell id="BKiBQ52J1VdA8qQZ-0-i-59" value="&lt;font style=&quot;font-size: 10px;&quot;&gt;(exchangeType == null)&lt;/font&gt;" style="text;html=1;align=center;verticalAlign=middle;resizable=0;points=[];autosize=1;strokeColor=none;fillColor=none;" vertex="1" parent="1">
          <mxGeometry x="-30" y="430" width="130" height="30" as="geometry" />
        </mxCell>
        <mxCell id="BKiBQ52J1VdA8qQZ-0-i-60" value="" style="html=1;verticalAlign=bottom;endArrow=open;dashed=1;endSize=8;curved=0;rounded=0;" edge="1" parent="1">
          <mxGeometry relative="1" as="geometry">
            <mxPoint x="255" y="444.62" as="sourcePoint" />
            <mxPoint x="120" y="444.62" as="targetPoint" />
          </mxGeometry>
        </mxCell>
        <mxCell id="BKiBQ52J1VdA8qQZ-0-i-61" value="" style="html=1;verticalAlign=bottom;endArrow=open;dashed=1;endSize=8;curved=0;rounded=0;exitX=0;exitY=0.41;exitDx=0;exitDy=0;exitPerimeter=0;" edge="1" parent="1">
          <mxGeometry relative="1" as="geometry">
            <mxPoint x="110" y="470" as="sourcePoint" />
            <mxPoint x="-15" y="470" as="targetPoint" />
          </mxGeometry>
        </mxCell>
        <mxCell id="BKiBQ52J1VdA8qQZ-0-i-63" value="&lt;font style=&quot;font-size: 10px;&quot;&gt;1.1.4: updateSavingFromExchange(exchangeDTO): void&lt;/font&gt;" style="html=1;verticalAlign=bottom;endArrow=block;curved=0;rounded=0;entryX=0;entryY=0;entryDx=0;entryDy=5;entryPerimeter=0;" edge="1" parent="1" source="BKiBQ52J1VdA8qQZ-0-i-25" target="BKiBQ52J1VdA8qQZ-0-i-62">
          <mxGeometry x="-0.0182" y="-20" width="80" relative="1" as="geometry">
            <mxPoint x="262.5" y="510" as="sourcePoint" />
            <mxPoint x="537.5" y="510" as="targetPoint" />
            <mxPoint as="offset" />
          </mxGeometry>
        </mxCell>
        <mxCell id="BKiBQ52J1VdA8qQZ-0-i-72" value="&lt;font style=&quot;font-size: 10px;&quot;&gt;1.1.4.2: save(saving): Saving&lt;/font&gt;" style="html=1;verticalAlign=bottom;endArrow=block;curved=0;rounded=0;" edge="1" parent="1" source="BKiBQ52J1VdA8qQZ-0-i-62" target="BKiBQ52J1VdA8qQZ-0-i-71">
          <mxGeometry x="0.0023" y="5" width="80" relative="1" as="geometry">
            <mxPoint x="565" y="580" as="sourcePoint" />
            <mxPoint x="840" y="580" as="targetPoint" />
            <mxPoint as="offset" />
          </mxGeometry>
        </mxCell>
        <mxCell id="BKiBQ52J1VdA8qQZ-0-i-73" value="" style="html=1;verticalAlign=bottom;endArrow=open;dashed=1;endSize=8;curved=0;rounded=0;entryX=1;entryY=1;entryDx=0;entryDy=-5;entryPerimeter=0;" edge="1" parent="1" source="BKiBQ52J1VdA8qQZ-0-i-71" target="BKiBQ52J1VdA8qQZ-0-i-62">
          <mxGeometry relative="1" as="geometry">
            <mxPoint x="970" y="590" as="sourcePoint" />
            <mxPoint x="550" y="590" as="targetPoint" />
          </mxGeometry>
        </mxCell>
        <mxCell id="BKiBQ52J1VdA8qQZ-0-i-74" value="" style="html=1;verticalAlign=bottom;endArrow=open;dashed=1;endSize=8;curved=0;rounded=0;exitX=0.033;exitY=0.998;exitDx=0;exitDy=0;exitPerimeter=0;" edge="1" parent="1" source="BKiBQ52J1VdA8qQZ-0-i-62" target="BKiBQ52J1VdA8qQZ-0-i-25">
          <mxGeometry relative="1" as="geometry">
            <mxPoint x="755" y="600" as="sourcePoint" />
            <mxPoint x="330" y="600" as="targetPoint" />
          </mxGeometry>
        </mxCell>
        <mxCell id="BKiBQ52J1VdA8qQZ-0-i-76" value="&lt;font style=&quot;font-size: 10px;&quot;&gt;1.1.5: updateWalletFromExchange(wallet): void&lt;/font&gt;" style="html=1;verticalAlign=bottom;endArrow=block;curved=0;rounded=0;" edge="1" parent="1" source="BKiBQ52J1VdA8qQZ-0-i-25" target="BKiBQ52J1VdA8qQZ-0-i-75">
          <mxGeometry x="0.6154" y="-25" width="80" relative="1" as="geometry">
            <mxPoint x="275" y="610" as="sourcePoint" />
            <mxPoint x="405" y="610" as="targetPoint" />
            <mxPoint as="offset" />
          </mxGeometry>
        </mxCell>
        <mxCell id="BKiBQ52J1VdA8qQZ-0-i-79" value="&lt;font style=&quot;font-size: 10px;&quot;&gt;1.1.5.1: save(wallet): Wallet&lt;/font&gt;" style="html=1;verticalAlign=bottom;endArrow=block;curved=0;rounded=0;exitX=1;exitY=0;exitDx=0;exitDy=5;exitPerimeter=0;" edge="1" parent="1" source="BKiBQ52J1VdA8qQZ-0-i-75" target="BKiBQ52J1VdA8qQZ-0-i-78">
          <mxGeometry x="0.1529" y="-20" width="80" relative="1" as="geometry">
            <mxPoint x="450" y="620" as="sourcePoint" />
            <mxPoint x="580" y="620" as="targetPoint" />
            <mxPoint as="offset" />
          </mxGeometry>
        </mxCell>
        <mxCell id="BKiBQ52J1VdA8qQZ-0-i-80" value="" style="html=1;verticalAlign=bottom;endArrow=open;dashed=1;endSize=8;curved=0;rounded=0;" edge="1" parent="1" target="BKiBQ52J1VdA8qQZ-0-i-75">
          <mxGeometry relative="1" as="geometry">
            <mxPoint x="830" y="650" as="sourcePoint" />
            <mxPoint x="280" y="650" as="targetPoint" />
          </mxGeometry>
        </mxCell>
        <mxCell id="BKiBQ52J1VdA8qQZ-0-i-81" value="" style="html=1;verticalAlign=bottom;endArrow=open;dashed=1;endSize=8;curved=0;rounded=0;exitX=0.5;exitY=1;exitDx=0;exitDy=0;exitPerimeter=0;" edge="1" parent="1" source="BKiBQ52J1VdA8qQZ-0-i-75" target="BKiBQ52J1VdA8qQZ-0-i-25">
          <mxGeometry relative="1" as="geometry">
            <mxPoint x="390" y="660" as="sourcePoint" />
            <mxPoint x="310" y="670" as="targetPoint" />
          </mxGeometry>
        </mxCell>
        <mxCell id="BKiBQ52J1VdA8qQZ-0-i-82" value=":Exchange" style="shape=umlLifeline;perimeter=lifelinePerimeter;whiteSpace=wrap;html=1;container=1;dropTarget=0;collapsible=0;recursiveResize=0;outlineConnect=0;portConstraint=eastwest;newEdgeStyle={&quot;curved&quot;:0,&quot;rounded&quot;:0};" vertex="1" parent="1">
          <mxGeometry x="880" y="620" width="70" height="90" as="geometry" />
        </mxCell>
        <mxCell id="BKiBQ52J1VdA8qQZ-0-i-84" value="" style="html=1;points=[[0,0,0,0,5],[0,1,0,0,-5],[1,0,0,0,5],[1,1,0,0,-5]];perimeter=orthogonalPerimeter;outlineConnect=0;targetShapes=umlLifeline;portConstraint=eastwest;newEdgeStyle={&quot;curved&quot;:0,&quot;rounded&quot;:0};" vertex="1" parent="BKiBQ52J1VdA8qQZ-0-i-82">
          <mxGeometry x="30" y="50" width="10" height="30" as="geometry" />
        </mxCell>
        <mxCell id="BKiBQ52J1VdA8qQZ-0-i-85" value="&lt;font style=&quot;font-size: 10px;&quot;&gt;1.1.6: exchange = build(): Exchange&lt;/font&gt;" style="html=1;verticalAlign=bottom;endArrow=block;curved=0;rounded=0;entryX=0;entryY=0;entryDx=0;entryDy=5;entryPerimeter=0;" edge="1" parent="1" source="BKiBQ52J1VdA8qQZ-0-i-25" target="BKiBQ52J1VdA8qQZ-0-i-84">
          <mxGeometry x="0.1318" y="-15" width="80" relative="1" as="geometry">
            <mxPoint x="280" y="670" as="sourcePoint" />
            <mxPoint x="705" y="670" as="targetPoint" />
            <mxPoint as="offset" />
          </mxGeometry>
        </mxCell>
        <mxCell id="BKiBQ52J1VdA8qQZ-0-i-86" value="&lt;font style=&quot;font-size: 10px;&quot;&gt;&amp;lt;&amp;lt;create&amp;gt;&amp;gt;&lt;/font&gt;" style="edgeLabel;html=1;align=center;verticalAlign=middle;resizable=0;points=[];" vertex="1" connectable="0" parent="BKiBQ52J1VdA8qQZ-0-i-85">
          <mxGeometry x="0.1139" y="1" relative="1" as="geometry">
            <mxPoint x="6" y="-4" as="offset" />
          </mxGeometry>
        </mxCell>
        <mxCell id="BKiBQ52J1VdA8qQZ-0-i-87" value="" style="html=1;verticalAlign=bottom;endArrow=open;dashed=1;endSize=8;curved=0;rounded=0;" edge="1" parent="1" target="BKiBQ52J1VdA8qQZ-0-i-25">
          <mxGeometry relative="1" as="geometry">
            <mxPoint x="910" y="700" as="sourcePoint" />
            <mxPoint x="415" y="710" as="targetPoint" />
          </mxGeometry>
        </mxCell>
        <mxCell id="BKiBQ52J1VdA8qQZ-0-i-88" value="&lt;font style=&quot;font-size: 10px;&quot;&gt;1.1.7: save(exchange): Exchange&lt;/font&gt;" style="html=1;verticalAlign=bottom;endArrow=block;curved=0;rounded=0;" edge="1" parent="1" source="BKiBQ52J1VdA8qQZ-0-i-25" target="BKiBQ52J1VdA8qQZ-0-i-90">
          <mxGeometry x="0.1318" y="-15" width="80" relative="1" as="geometry">
            <mxPoint x="270" y="720" as="sourcePoint" />
            <mxPoint x="915" y="720" as="targetPoint" />
            <mxPoint as="offset" />
          </mxGeometry>
        </mxCell>
        <mxCell id="BKiBQ52J1VdA8qQZ-0-i-91" value="" style="html=1;verticalAlign=bottom;endArrow=open;dashed=1;endSize=8;curved=0;rounded=0;exitX=-0.073;exitY=0.979;exitDx=0;exitDy=0;exitPerimeter=0;" edge="1" parent="1" source="BKiBQ52J1VdA8qQZ-0-i-90" target="BKiBQ52J1VdA8qQZ-0-i-25">
          <mxGeometry relative="1" as="geometry">
            <mxPoint x="925" y="740" as="sourcePoint" />
            <mxPoint x="280" y="740" as="targetPoint" />
          </mxGeometry>
        </mxCell>
        <mxCell id="BKiBQ52J1VdA8qQZ-0-i-98" value="" style="html=1;verticalAlign=bottom;endArrow=open;dashed=1;endSize=8;curved=0;rounded=0;exitX=0;exitY=1;exitDx=0;exitDy=-5;exitPerimeter=0;" edge="1" parent="1" source="BKiBQ52J1VdA8qQZ-0-i-25" target="BKiBQ52J1VdA8qQZ-0-i-24">
          <mxGeometry relative="1" as="geometry">
            <mxPoint x="240" y="740" as="sourcePoint" />
            <mxPoint x="115" y="740" as="targetPoint" />
          </mxGeometry>
        </mxCell>
        <mxCell id="BKiBQ52J1VdA8qQZ-0-i-99" value="" style="html=1;verticalAlign=bottom;endArrow=open;dashed=1;endSize=8;curved=0;rounded=0;exitX=0;exitY=1;exitDx=0;exitDy=-5;exitPerimeter=0;" edge="1" parent="1" source="BKiBQ52J1VdA8qQZ-0-i-24" target="BKiBQ52J1VdA8qQZ-0-i-28">
          <mxGeometry relative="1" as="geometry">
            <mxPoint x="125" y="780" as="sourcePoint" />
            <mxPoint x="-10" y="780" as="targetPoint" />
          </mxGeometry>
        </mxCell>
        <mxCell id="BKiBQ52J1VdA8qQZ-0-i-100" value="&lt;font style=&quot;font-size: 10px;&quot;&gt;1: payADebt(request&lt;br&gt;, debtId): Debt&lt;/font&gt;" style="html=1;verticalAlign=bottom;endArrow=block;curved=0;rounded=0;" edge="1" parent="1">
          <mxGeometry x="0.04" y="-30" width="80" relative="1" as="geometry">
            <mxPoint x="-15" y="950" as="sourcePoint" />
            <mxPoint x="110" y="950" as="targetPoint" />
            <mxPoint as="offset" />
            <Array as="points">
              <mxPoint x="60" y="950" />
            </Array>
          </mxGeometry>
        </mxCell>
        <mxCell id="BKiBQ52J1VdA8qQZ-0-i-101" value="sd" style="shape=umlFrame;whiteSpace=wrap;html=1;pointerEvents=0;" vertex="1" parent="1">
          <mxGeometry x="-90" y="840" width="880" height="670" as="geometry" />
        </mxCell>
        <mxCell id="BKiBQ52J1VdA8qQZ-0-i-102" value=":LoanAndDebtController" style="text;html=1;align=center;verticalAlign=middle;resizable=0;points=[];autosize=1;strokeColor=none;fillColor=none;" vertex="1" parent="1">
          <mxGeometry x="40" y="850" width="150" height="30" as="geometry" />
        </mxCell>
        <mxCell id="BKiBQ52J1VdA8qQZ-0-i-103" value="" style="shape=umlLifeline;perimeter=lifelinePerimeter;whiteSpace=wrap;html=1;container=1;dropTarget=0;collapsible=0;recursiveResize=0;outlineConnect=0;portConstraint=eastwest;newEdgeStyle={&quot;curved&quot;:0,&quot;rounded&quot;:0};participant=umlControl;" vertex="1" parent="1">
          <mxGeometry x="240" y="880" width="40" height="590" as="geometry" />
        </mxCell>
        <mxCell id="BKiBQ52J1VdA8qQZ-0-i-104" value="" style="html=1;points=[[0,0,0,0,5],[0,1,0,0,-5],[1,0,0,0,5],[1,1,0,0,-5]];perimeter=orthogonalPerimeter;outlineConnect=0;targetShapes=umlLifeline;portConstraint=eastwest;newEdgeStyle={&quot;curved&quot;:0,&quot;rounded&quot;:0};" vertex="1" parent="BKiBQ52J1VdA8qQZ-0-i-103">
          <mxGeometry x="15" y="70" width="10" height="510" as="geometry" />
        </mxCell>
        <mxCell id="BKiBQ52J1VdA8qQZ-0-i-108" value=":TransactionService" style="text;html=1;align=center;verticalAlign=middle;resizable=0;points=[];autosize=1;strokeColor=none;fillColor=none;" vertex="1" parent="1">
          <mxGeometry x="195" y="850" width="130" height="30" as="geometry" />
        </mxCell>
        <mxCell id="BKiBQ52J1VdA8qQZ-0-i-109" value="" style="shape=umlLifeline;perimeter=lifelinePerimeter;whiteSpace=wrap;html=1;container=1;dropTarget=0;collapsible=0;recursiveResize=0;outlineConnect=0;portConstraint=eastwest;newEdgeStyle={&quot;curved&quot;:0,&quot;rounded&quot;:0};participant=umlControl;" vertex="1" parent="1">
          <mxGeometry x="380" y="880" width="40" height="380" as="geometry" />
        </mxCell>
        <mxCell id="BKiBQ52J1VdA8qQZ-0-i-110" value="" style="html=1;points=[[0,0,0,0,5],[0,1,0,0,-5],[1,0,0,0,5],[1,1,0,0,-5]];perimeter=orthogonalPerimeter;outlineConnect=0;targetShapes=umlLifeline;portConstraint=eastwest;newEdgeStyle={&quot;curved&quot;:0,&quot;rounded&quot;:0};" vertex="1" parent="BKiBQ52J1VdA8qQZ-0-i-109">
          <mxGeometry x="15" y="80" width="10" height="290" as="geometry" />
        </mxCell>
        <mxCell id="BKiBQ52J1VdA8qQZ-0-i-179" style="edgeStyle=orthogonalEdgeStyle;rounded=0;orthogonalLoop=1;jettySize=auto;html=1;curved=0;entryX=1;entryY=0;entryDx=0;entryDy=5;entryPerimeter=0;" edge="1" parent="BKiBQ52J1VdA8qQZ-0-i-109" source="BKiBQ52J1VdA8qQZ-0-i-110" target="BKiBQ52J1VdA8qQZ-0-i-181">
          <mxGeometry relative="1" as="geometry">
            <Array as="points">
              <mxPoint x="60" y="85" />
              <mxPoint x="60" y="105" />
            </Array>
          </mxGeometry>
        </mxCell>
        <mxCell id="BKiBQ52J1VdA8qQZ-0-i-180" value="&lt;span style=&quot;font-size: 10px;&quot;&gt;1.1.1.1: debt = getDebtById&lt;br&gt;(debtId): Debt&lt;/span&gt;" style="edgeLabel;html=1;align=center;verticalAlign=middle;resizable=0;points=[];" vertex="1" connectable="0" parent="BKiBQ52J1VdA8qQZ-0-i-179">
          <mxGeometry x="-0.1633" relative="1" as="geometry">
            <mxPoint x="70" y="15" as="offset" />
          </mxGeometry>
        </mxCell>
        <mxCell id="BKiBQ52J1VdA8qQZ-0-i-181" value="" style="html=1;points=[[0,0,0,0,5],[0,1,0,0,-5],[1,0,0,0,5],[1,1,0,0,-5]];perimeter=orthogonalPerimeter;outlineConnect=0;targetShapes=umlLifeline;portConstraint=eastwest;newEdgeStyle={&quot;curved&quot;:0,&quot;rounded&quot;:0};" vertex="1" parent="BKiBQ52J1VdA8qQZ-0-i-109">
          <mxGeometry x="20" y="100" width="10" height="60" as="geometry" />
        </mxCell>
        <mxCell id="BKiBQ52J1VdA8qQZ-0-i-189" value="" style="html=1;points=[[0,0,0,0,5],[0,1,0,0,-5],[1,0,0,0,5],[1,1,0,0,-5]];perimeter=orthogonalPerimeter;outlineConnect=0;targetShapes=umlLifeline;portConstraint=eastwest;newEdgeStyle={&quot;curved&quot;:0,&quot;rounded&quot;:0};" vertex="1" parent="BKiBQ52J1VdA8qQZ-0-i-109">
          <mxGeometry x="20" y="300" width="10" height="30" as="geometry" />
        </mxCell>
        <mxCell id="BKiBQ52J1VdA8qQZ-0-i-190" style="edgeStyle=orthogonalEdgeStyle;rounded=0;orthogonalLoop=1;jettySize=auto;html=1;curved=0;entryX=1;entryY=0;entryDx=0;entryDy=5;entryPerimeter=0;" edge="1" parent="BKiBQ52J1VdA8qQZ-0-i-109" source="BKiBQ52J1VdA8qQZ-0-i-110" target="BKiBQ52J1VdA8qQZ-0-i-189">
          <mxGeometry relative="1" as="geometry">
            <mxPoint x="25" y="280" as="sourcePoint" />
            <mxPoint x="30" y="300" as="targetPoint" />
            <Array as="points">
              <mxPoint x="60" y="280" />
              <mxPoint x="60" y="305" />
            </Array>
          </mxGeometry>
        </mxCell>
        <mxCell id="BKiBQ52J1VdA8qQZ-0-i-191" value="&lt;span style=&quot;font-size: 10px;&quot;&gt;1.1.1.3: debt = updateDebt&lt;br&gt;(amount): Debt&lt;/span&gt;" style="edgeLabel;html=1;align=center;verticalAlign=middle;resizable=0;points=[];" vertex="1" connectable="0" parent="BKiBQ52J1VdA8qQZ-0-i-190">
          <mxGeometry x="-0.1633" relative="1" as="geometry">
            <mxPoint x="70" y="15" as="offset" />
          </mxGeometry>
        </mxCell>
        <mxCell id="BKiBQ52J1VdA8qQZ-0-i-112" value=":LoanAndDebtServiceImpl" style="text;html=1;align=center;verticalAlign=middle;resizable=0;points=[];autosize=1;strokeColor=none;fillColor=none;" vertex="1" parent="1">
          <mxGeometry x="320" y="850" width="160" height="30" as="geometry" />
        </mxCell>
        <mxCell id="BKiBQ52J1VdA8qQZ-0-i-113" value="" style="shape=umlLifeline;perimeter=lifelinePerimeter;whiteSpace=wrap;html=1;container=1;dropTarget=0;collapsible=0;recursiveResize=0;outlineConnect=0;portConstraint=eastwest;newEdgeStyle={&quot;curved&quot;:0,&quot;rounded&quot;:0};participant=umlControl;" vertex="1" parent="1">
          <mxGeometry x="525" y="880" width="40" height="580" as="geometry" />
        </mxCell>
        <mxCell id="BKiBQ52J1VdA8qQZ-0-i-202" value="" style="html=1;points=[[0,0,0,0,5],[0,1,0,0,-5],[1,0,0,0,5],[1,1,0,0,-5]];perimeter=orthogonalPerimeter;outlineConnect=0;targetShapes=umlLifeline;portConstraint=eastwest;newEdgeStyle={&quot;curved&quot;:0,&quot;rounded&quot;:0};" vertex="1" parent="BKiBQ52J1VdA8qQZ-0-i-113">
          <mxGeometry x="15" y="490" width="10" height="80" as="geometry" />
        </mxCell>
        <mxCell id="BKiBQ52J1VdA8qQZ-0-i-203" value="&lt;font style=&quot;font-size: 10px;&quot;&gt;1.1.2: createWalletDebtExchange(exchangeDTO): void&lt;/font&gt;" style="html=1;verticalAlign=bottom;endArrow=block;curved=0;rounded=0;entryX=0;entryY=0;entryDx=0;entryDy=5;entryPerimeter=0;" edge="1" parent="BKiBQ52J1VdA8qQZ-0-i-113" target="BKiBQ52J1VdA8qQZ-0-i-202">
          <mxGeometry x="0.0545" y="-25" width="80" relative="1" as="geometry">
            <mxPoint x="-260" y="495" as="sourcePoint" />
            <mxPoint x="-50" y="500" as="targetPoint" />
            <mxPoint as="offset" />
          </mxGeometry>
        </mxCell>
        <mxCell id="BKiBQ52J1VdA8qQZ-0-i-119" value=":ExchangeServiceImpl" style="text;html=1;align=center;verticalAlign=middle;resizable=0;points=[];autosize=1;strokeColor=none;fillColor=none;" vertex="1" parent="1">
          <mxGeometry x="475" y="850" width="140" height="30" as="geometry" />
        </mxCell>
        <mxCell id="BKiBQ52J1VdA8qQZ-0-i-123" value="" style="shape=umlLifeline;perimeter=lifelinePerimeter;whiteSpace=wrap;html=1;container=1;dropTarget=0;collapsible=0;recursiveResize=0;outlineConnect=0;portConstraint=eastwest;newEdgeStyle={&quot;curved&quot;:0,&quot;rounded&quot;:0};participant=umlEntity;" vertex="1" parent="1">
          <mxGeometry x="700" y="880" width="40" height="370" as="geometry" />
        </mxCell>
        <mxCell id="BKiBQ52J1VdA8qQZ-0-i-124" value="" style="html=1;points=[[0,0,0,0,5],[0,1,0,0,-5],[1,0,0,0,5],[1,1,0,0,-5]];perimeter=orthogonalPerimeter;outlineConnect=0;targetShapes=umlLifeline;portConstraint=eastwest;newEdgeStyle={&quot;curved&quot;:0,&quot;rounded&quot;:0};" vertex="1" parent="BKiBQ52J1VdA8qQZ-0-i-123">
          <mxGeometry x="15" y="110" width="10" height="30" as="geometry" />
        </mxCell>
        <mxCell id="BKiBQ52J1VdA8qQZ-0-i-193" value="" style="html=1;points=[[0,0,0,0,5],[0,1,0,0,-5],[1,0,0,0,5],[1,1,0,0,-5]];perimeter=orthogonalPerimeter;outlineConnect=0;targetShapes=umlLifeline;portConstraint=eastwest;newEdgeStyle={&quot;curved&quot;:0,&quot;rounded&quot;:0};" vertex="1" parent="BKiBQ52J1VdA8qQZ-0-i-123">
          <mxGeometry x="15" y="330" width="10" height="30" as="geometry" />
        </mxCell>
        <mxCell id="BKiBQ52J1VdA8qQZ-0-i-126" value=":DebtRepo" style="text;html=1;align=center;verticalAlign=middle;resizable=0;points=[];autosize=1;strokeColor=none;fillColor=none;" vertex="1" parent="1">
          <mxGeometry x="680" y="850" width="80" height="30" as="geometry" />
        </mxCell>
        <mxCell id="BKiBQ52J1VdA8qQZ-0-i-134" value="" style="shape=umlLifeline;perimeter=lifelinePerimeter;whiteSpace=wrap;html=1;container=1;dropTarget=0;collapsible=0;recursiveResize=0;outlineConnect=0;portConstraint=eastwest;newEdgeStyle={&quot;curved&quot;:0,&quot;rounded&quot;:0};participant=umlActor;" vertex="1" parent="1">
          <mxGeometry x="-30" y="880" width="20" height="610" as="geometry" />
        </mxCell>
        <mxCell id="BKiBQ52J1VdA8qQZ-0-i-135" value="" style="html=1;points=[[0,0,0,0,5],[0,1,0,0,-5],[1,0,0,0,5],[1,1,0,0,-5]];perimeter=orthogonalPerimeter;outlineConnect=0;targetShapes=umlLifeline;portConstraint=eastwest;newEdgeStyle={&quot;curved&quot;:0,&quot;rounded&quot;:0};" vertex="1" parent="BKiBQ52J1VdA8qQZ-0-i-134">
          <mxGeometry x="5" y="50" width="10" height="550" as="geometry" />
        </mxCell>
        <mxCell id="BKiBQ52J1VdA8qQZ-0-i-136" value="" style="shape=umlLifeline;perimeter=lifelinePerimeter;whiteSpace=wrap;html=1;container=1;dropTarget=0;collapsible=0;recursiveResize=0;outlineConnect=0;portConstraint=eastwest;newEdgeStyle={&quot;curved&quot;:0,&quot;rounded&quot;:0};participant=umlBoundary;" vertex="1" parent="1">
          <mxGeometry x="90" y="880" width="50" height="610" as="geometry" />
        </mxCell>
        <mxCell id="BKiBQ52J1VdA8qQZ-0-i-137" value="" style="html=1;points=[[0,0,0,0,5],[0,1,0,0,-5],[1,0,0,0,5],[1,1,0,0,-5]];perimeter=orthogonalPerimeter;outlineConnect=0;targetShapes=umlLifeline;portConstraint=eastwest;newEdgeStyle={&quot;curved&quot;:0,&quot;rounded&quot;:0};" vertex="1" parent="BKiBQ52J1VdA8qQZ-0-i-136">
          <mxGeometry x="20" y="60" width="10" height="530" as="geometry" />
        </mxCell>
        <mxCell id="BKiBQ52J1VdA8qQZ-0-i-138" value="&lt;span style=&quot;font-size: 10px;&quot;&gt;1.1: payADebt(request&lt;/span&gt;&lt;br style=&quot;font-size: 10px;&quot;&gt;&lt;span style=&quot;font-size: 10px;&quot;&gt;, debtId): Debt&lt;/span&gt;" style="html=1;verticalAlign=bottom;endArrow=block;curved=0;rounded=0;entryX=0;entryY=0;entryDx=0;entryDy=5;entryPerimeter=0;" edge="1" parent="1" source="BKiBQ52J1VdA8qQZ-0-i-137" target="BKiBQ52J1VdA8qQZ-0-i-104">
          <mxGeometry x="0.037" y="-35" width="80" relative="1" as="geometry">
            <mxPoint x="140" y="960" as="sourcePoint" />
            <mxPoint x="220" y="960" as="targetPoint" />
            <mxPoint as="offset" />
          </mxGeometry>
        </mxCell>
        <mxCell id="BKiBQ52J1VdA8qQZ-0-i-139" value="&lt;span style=&quot;font-size: 10px;&quot;&gt;1.1.1: payForADebt(amount&lt;/span&gt;&lt;span style=&quot;font-size: 10px;&quot;&gt;, debtId): Debt&lt;/span&gt;" style="html=1;verticalAlign=bottom;endArrow=block;curved=0;rounded=0;entryX=0;entryY=0;entryDx=0;entryDy=5;entryPerimeter=0;" edge="1" parent="1" source="BKiBQ52J1VdA8qQZ-0-i-104" target="BKiBQ52J1VdA8qQZ-0-i-110">
          <mxGeometry x="0.4615" y="5" width="80" relative="1" as="geometry">
            <mxPoint x="270" y="960" as="sourcePoint" />
            <mxPoint x="399.99999999999955" y="960" as="targetPoint" />
            <mxPoint as="offset" />
          </mxGeometry>
        </mxCell>
        <mxCell id="BKiBQ52J1VdA8qQZ-0-i-140" value="&lt;font style=&quot;font-size: 10px;&quot;&gt;1.1.1.2: findById(id): Debt&lt;/font&gt;" style="html=1;verticalAlign=bottom;endArrow=block;curved=0;rounded=0;entryX=0;entryY=0;entryDx=0;entryDy=5;entryPerimeter=0;" edge="1" parent="1" source="BKiBQ52J1VdA8qQZ-0-i-181" target="BKiBQ52J1VdA8qQZ-0-i-124">
          <mxGeometry x="0.1538" y="5" width="80" relative="1" as="geometry">
            <mxPoint x="420" y="975" as="sourcePoint" />
            <mxPoint x="550" y="975" as="targetPoint" />
            <mxPoint as="offset" />
          </mxGeometry>
        </mxCell>
        <mxCell id="BKiBQ52J1VdA8qQZ-0-i-141" value="" style="html=1;verticalAlign=bottom;endArrow=open;dashed=1;endSize=8;curved=0;rounded=0;exitX=0;exitY=1;exitDx=0;exitDy=-5;exitPerimeter=0;" edge="1" parent="1" source="BKiBQ52J1VdA8qQZ-0-i-124" target="BKiBQ52J1VdA8qQZ-0-i-181">
          <mxGeometry relative="1" as="geometry">
            <mxPoint x="670" y="1000" as="sourcePoint" />
            <mxPoint x="590" y="1000" as="targetPoint" />
          </mxGeometry>
        </mxCell>
        <mxCell id="BKiBQ52J1VdA8qQZ-0-i-142" value=":User" style="text;html=1;align=center;verticalAlign=middle;resizable=0;points=[];autosize=1;strokeColor=none;fillColor=none;" vertex="1" parent="1">
          <mxGeometry x="-45" y="850" width="50" height="30" as="geometry" />
        </mxCell>
        <mxCell id="BKiBQ52J1VdA8qQZ-0-i-143" value="" style="html=1;verticalAlign=bottom;endArrow=open;dashed=1;endSize=8;curved=0;rounded=0;exitX=0;exitY=1;exitDx=0;exitDy=-5;exitPerimeter=0;" edge="1" parent="1" source="BKiBQ52J1VdA8qQZ-0-i-181" target="BKiBQ52J1VdA8qQZ-0-i-104">
          <mxGeometry relative="1" as="geometry">
            <mxPoint x="525" y="1015" as="sourcePoint" />
            <mxPoint x="100" y="1015" as="targetPoint" />
          </mxGeometry>
        </mxCell>
        <mxCell id="BKiBQ52J1VdA8qQZ-0-i-145" value="" style="html=1;verticalAlign=bottom;endArrow=open;dashed=1;endSize=8;curved=0;rounded=0;" edge="1" parent="1">
          <mxGeometry relative="1" as="geometry">
            <mxPoint x="255" y="1049.73" as="sourcePoint" />
            <mxPoint x="120" y="1049.73" as="targetPoint" />
          </mxGeometry>
        </mxCell>
        <mxCell id="BKiBQ52J1VdA8qQZ-0-i-147" value="" style="html=1;verticalAlign=bottom;endArrow=open;dashed=1;endSize=8;curved=0;rounded=0;" edge="1" parent="1" target="BKiBQ52J1VdA8qQZ-0-i-135">
          <mxGeometry relative="1" as="geometry">
            <mxPoint x="110" y="1060" as="sourcePoint" />
            <mxPoint y="1060" as="targetPoint" />
          </mxGeometry>
        </mxCell>
        <mxCell id="BKiBQ52J1VdA8qQZ-0-i-178" value="" style="html=1;verticalAlign=bottom;endArrow=open;dashed=1;endSize=8;curved=0;rounded=0;exitX=0;exitY=1;exitDx=0;exitDy=-5;exitPerimeter=0;" edge="1" parent="1" source="BKiBQ52J1VdA8qQZ-0-i-137" target="BKiBQ52J1VdA8qQZ-0-i-135">
          <mxGeometry relative="1" as="geometry">
            <mxPoint x="125" y="1620" as="sourcePoint" />
            <mxPoint x="-10" y="1620" as="targetPoint" />
          </mxGeometry>
        </mxCell>
        <mxCell id="BKiBQ52J1VdA8qQZ-0-i-182" value="alt" style="shape=umlFrame;whiteSpace=wrap;html=1;pointerEvents=0;width=50;height=20;" vertex="1" parent="1">
          <mxGeometry x="-45" y="1020" width="485" height="50" as="geometry" />
        </mxCell>
        <mxCell id="BKiBQ52J1VdA8qQZ-0-i-183" value="&lt;font style=&quot;font-size: 10px;&quot;&gt;(debt== null)&lt;/font&gt;" style="text;html=1;align=center;verticalAlign=middle;resizable=0;points=[];autosize=1;strokeColor=none;fillColor=none;" vertex="1" parent="1">
          <mxGeometry x="5" y="1020" width="80" height="30" as="geometry" />
        </mxCell>
        <mxCell id="BKiBQ52J1VdA8qQZ-0-i-184" value="alt" style="shape=umlFrame;whiteSpace=wrap;html=1;pointerEvents=0;width=50;height=20;" vertex="1" parent="1">
          <mxGeometry x="-45" y="1080" width="485" height="70" as="geometry" />
        </mxCell>
        <mxCell id="BKiBQ52J1VdA8qQZ-0-i-185" value="&lt;font style=&quot;font-size: 10px;&quot;&gt;(debt.getOpenStatus() == false ||&lt;/font&gt;&lt;div&gt;&lt;font style=&quot;font-size: 10px;&quot;&gt;amount &amp;gt;= debt.getCurrentAmount())&lt;/font&gt;&lt;/div&gt;" style="text;html=1;align=center;verticalAlign=middle;resizable=0;points=[];autosize=1;strokeColor=none;fillColor=none;" vertex="1" parent="1">
          <mxGeometry x="-20" y="1080" width="190" height="40" as="geometry" />
        </mxCell>
        <mxCell id="BKiBQ52J1VdA8qQZ-0-i-186" value="" style="html=1;verticalAlign=bottom;endArrow=open;dashed=1;endSize=8;curved=0;rounded=0;exitX=0;exitY=1;exitDx=0;exitDy=-5;exitPerimeter=0;" edge="1" parent="1" target="BKiBQ52J1VdA8qQZ-0-i-104">
          <mxGeometry relative="1" as="geometry">
            <mxPoint x="395" y="1094.5" as="sourcePoint" />
            <mxPoint x="260" y="1094.5" as="targetPoint" />
          </mxGeometry>
        </mxCell>
        <mxCell id="BKiBQ52J1VdA8qQZ-0-i-187" value="" style="html=1;verticalAlign=bottom;endArrow=open;dashed=1;endSize=8;curved=0;rounded=0;" edge="1" parent="1">
          <mxGeometry relative="1" as="geometry">
            <mxPoint x="255" y="1120" as="sourcePoint" />
            <mxPoint x="120" y="1120" as="targetPoint" />
          </mxGeometry>
        </mxCell>
        <mxCell id="BKiBQ52J1VdA8qQZ-0-i-188" value="" style="html=1;verticalAlign=bottom;endArrow=open;dashed=1;endSize=8;curved=0;rounded=0;" edge="1" parent="1" target="BKiBQ52J1VdA8qQZ-0-i-135">
          <mxGeometry relative="1" as="geometry">
            <mxPoint x="110" y="1140" as="sourcePoint" />
            <mxPoint x="-10.000000000000227" y="1140" as="targetPoint" />
          </mxGeometry>
        </mxCell>
        <mxCell id="BKiBQ52J1VdA8qQZ-0-i-192" value="&lt;font style=&quot;font-size: 10px;&quot;&gt;1.1.1.4: save(debt): Debt&lt;/font&gt;" style="html=1;verticalAlign=bottom;endArrow=block;curved=0;rounded=0;entryX=0;entryY=0;entryDx=0;entryDy=5;entryPerimeter=0;" edge="1" parent="1" source="BKiBQ52J1VdA8qQZ-0-i-110" target="BKiBQ52J1VdA8qQZ-0-i-193">
          <mxGeometry x="0.1538" y="5" width="80" relative="1" as="geometry">
            <mxPoint x="400" y="1220" as="sourcePoint" />
            <mxPoint x="820" y="1220" as="targetPoint" />
            <mxPoint as="offset" />
          </mxGeometry>
        </mxCell>
        <mxCell id="BKiBQ52J1VdA8qQZ-0-i-194" value="" style="html=1;verticalAlign=bottom;endArrow=open;dashed=1;endSize=8;curved=0;rounded=0;exitX=0;exitY=1;exitDx=0;exitDy=-5;exitPerimeter=0;" edge="1" parent="1" source="BKiBQ52J1VdA8qQZ-0-i-193" target="BKiBQ52J1VdA8qQZ-0-i-110">
          <mxGeometry relative="1" as="geometry">
            <mxPoint x="830" y="1230" as="sourcePoint" />
            <mxPoint x="410" y="1230" as="targetPoint" />
          </mxGeometry>
        </mxCell>
        <mxCell id="BKiBQ52J1VdA8qQZ-0-i-195" value="" style="html=1;verticalAlign=bottom;endArrow=open;dashed=1;endSize=8;curved=0;rounded=0;exitX=0;exitY=1;exitDx=0;exitDy=-5;exitPerimeter=0;" edge="1" parent="1" source="BKiBQ52J1VdA8qQZ-0-i-110" target="BKiBQ52J1VdA8qQZ-0-i-104">
          <mxGeometry relative="1" as="geometry">
            <mxPoint x="395" y="1239.41" as="sourcePoint" />
            <mxPoint x="-30" y="1239.41" as="targetPoint" />
          </mxGeometry>
        </mxCell>
        <mxCell id="BKiBQ52J1VdA8qQZ-0-i-196" value=":Exchange&lt;br&gt;DTO" style="shape=umlLifeline;perimeter=lifelinePerimeter;whiteSpace=wrap;html=1;container=1;dropTarget=0;collapsible=0;recursiveResize=0;outlineConnect=0;portConstraint=eastwest;newEdgeStyle={&quot;curved&quot;:0,&quot;rounded&quot;:0};" vertex="1" parent="1">
          <mxGeometry x="430" y="1260" width="70" height="90" as="geometry" />
        </mxCell>
        <mxCell id="BKiBQ52J1VdA8qQZ-0-i-198" value="" style="html=1;points=[[0,0,0,0,5],[0,1,0,0,-5],[1,0,0,0,5],[1,1,0,0,-5]];perimeter=orthogonalPerimeter;outlineConnect=0;targetShapes=umlLifeline;portConstraint=eastwest;newEdgeStyle={&quot;curved&quot;:0,&quot;rounded&quot;:0};" vertex="1" parent="BKiBQ52J1VdA8qQZ-0-i-196">
          <mxGeometry x="30" y="50" width="10" height="40" as="geometry" />
        </mxCell>
        <mxCell id="BKiBQ52J1VdA8qQZ-0-i-199" value="&lt;font style=&quot;font-size: 10px;&quot;&gt;1.1.2: exchangeDTO = new ExchangeDTO(request): ExchangeDTO&lt;/font&gt;" style="html=1;verticalAlign=bottom;endArrow=block;curved=0;rounded=0;entryX=0.152;entryY=-0.025;entryDx=0;entryDy=0;entryPerimeter=0;" edge="1" parent="1" source="BKiBQ52J1VdA8qQZ-0-i-104" target="BKiBQ52J1VdA8qQZ-0-i-198">
          <mxGeometry x="-0.4403" y="-21" width="80" relative="1" as="geometry">
            <mxPoint x="240" y="1320" as="sourcePoint" />
            <mxPoint x="665" y="1320" as="targetPoint" />
            <mxPoint as="offset" />
          </mxGeometry>
        </mxCell>
        <mxCell id="BKiBQ52J1VdA8qQZ-0-i-201" value="" style="html=1;verticalAlign=bottom;endArrow=open;dashed=1;endSize=8;curved=0;rounded=0;exitX=0;exitY=1;exitDx=0;exitDy=-5;exitPerimeter=0;" edge="1" parent="1" source="BKiBQ52J1VdA8qQZ-0-i-198" target="BKiBQ52J1VdA8qQZ-0-i-104">
          <mxGeometry relative="1" as="geometry">
            <mxPoint x="410" y="1320" as="sourcePoint" />
            <mxPoint x="280" y="1320" as="targetPoint" />
          </mxGeometry>
        </mxCell>
        <mxCell id="BKiBQ52J1VdA8qQZ-0-i-207" value="&lt;font style=&quot;font-size: 10px;&quot;&gt;1: payADebt(request&lt;br&gt;, debtId): Debt&lt;/font&gt;" style="html=1;verticalAlign=bottom;endArrow=block;curved=0;rounded=0;" edge="1" parent="1">
          <mxGeometry x="0.04" y="-30" width="80" relative="1" as="geometry">
            <mxPoint x="-15" y="1790" as="sourcePoint" />
            <mxPoint x="110" y="1790" as="targetPoint" />
            <mxPoint as="offset" />
            <Array as="points">
              <mxPoint x="60" y="1790" />
            </Array>
          </mxGeometry>
        </mxCell>
        <mxCell id="BKiBQ52J1VdA8qQZ-0-i-208" value="sd" style="shape=umlFrame;whiteSpace=wrap;html=1;pointerEvents=0;" vertex="1" parent="1">
          <mxGeometry x="-90" y="1680" width="1330" height="800" as="geometry" />
        </mxCell>
        <mxCell id="BKiBQ52J1VdA8qQZ-0-i-209" value=":LoanAndDebtController" style="text;html=1;align=center;verticalAlign=middle;resizable=0;points=[];autosize=1;strokeColor=none;fillColor=none;" vertex="1" parent="1">
          <mxGeometry x="40" y="1690" width="150" height="30" as="geometry" />
        </mxCell>
        <mxCell id="BKiBQ52J1VdA8qQZ-0-i-210" value="" style="shape=umlLifeline;perimeter=lifelinePerimeter;whiteSpace=wrap;html=1;container=1;dropTarget=0;collapsible=0;recursiveResize=0;outlineConnect=0;portConstraint=eastwest;newEdgeStyle={&quot;curved&quot;:0,&quot;rounded&quot;:0};participant=umlControl;" vertex="1" parent="1">
          <mxGeometry x="240" y="1720" width="40" height="750" as="geometry" />
        </mxCell>
        <mxCell id="BKiBQ52J1VdA8qQZ-0-i-211" value="" style="html=1;points=[[0,0,0,0,5],[0,1,0,0,-5],[1,0,0,0,5],[1,1,0,0,-5]];perimeter=orthogonalPerimeter;outlineConnect=0;targetShapes=umlLifeline;portConstraint=eastwest;newEdgeStyle={&quot;curved&quot;:0,&quot;rounded&quot;:0};" vertex="1" parent="BKiBQ52J1VdA8qQZ-0-i-210">
          <mxGeometry x="15" y="70" width="10" height="670" as="geometry" />
        </mxCell>
        <mxCell id="BKiBQ52J1VdA8qQZ-0-i-212" value=":TransactionService" style="text;html=1;align=center;verticalAlign=middle;resizable=0;points=[];autosize=1;strokeColor=none;fillColor=none;" vertex="1" parent="1">
          <mxGeometry x="195" y="1690" width="130" height="30" as="geometry" />
        </mxCell>
        <mxCell id="BKiBQ52J1VdA8qQZ-0-i-213" value="" style="shape=umlLifeline;perimeter=lifelinePerimeter;whiteSpace=wrap;html=1;container=1;dropTarget=0;collapsible=0;recursiveResize=0;outlineConnect=0;portConstraint=eastwest;newEdgeStyle={&quot;curved&quot;:0,&quot;rounded&quot;:0};participant=umlControl;" vertex="1" parent="1">
          <mxGeometry x="380" y="1720" width="40" height="380" as="geometry" />
        </mxCell>
        <mxCell id="BKiBQ52J1VdA8qQZ-0-i-214" value="" style="html=1;points=[[0,0,0,0,5],[0,1,0,0,-5],[1,0,0,0,5],[1,1,0,0,-5]];perimeter=orthogonalPerimeter;outlineConnect=0;targetShapes=umlLifeline;portConstraint=eastwest;newEdgeStyle={&quot;curved&quot;:0,&quot;rounded&quot;:0};" vertex="1" parent="BKiBQ52J1VdA8qQZ-0-i-213">
          <mxGeometry x="15" y="80" width="10" height="290" as="geometry" />
        </mxCell>
        <mxCell id="BKiBQ52J1VdA8qQZ-0-i-215" style="edgeStyle=orthogonalEdgeStyle;rounded=0;orthogonalLoop=1;jettySize=auto;html=1;curved=0;entryX=1;entryY=0;entryDx=0;entryDy=5;entryPerimeter=0;" edge="1" parent="BKiBQ52J1VdA8qQZ-0-i-213" source="BKiBQ52J1VdA8qQZ-0-i-214" target="BKiBQ52J1VdA8qQZ-0-i-217">
          <mxGeometry relative="1" as="geometry">
            <Array as="points">
              <mxPoint x="60" y="85" />
              <mxPoint x="60" y="105" />
            </Array>
          </mxGeometry>
        </mxCell>
        <mxCell id="BKiBQ52J1VdA8qQZ-0-i-216" value="&lt;span style=&quot;font-size: 10px;&quot;&gt;1.1.1.1: debt = getDebtById&lt;br&gt;(debtId): Debt&lt;/span&gt;" style="edgeLabel;html=1;align=center;verticalAlign=middle;resizable=0;points=[];" vertex="1" connectable="0" parent="BKiBQ52J1VdA8qQZ-0-i-215">
          <mxGeometry x="-0.1633" relative="1" as="geometry">
            <mxPoint x="70" y="15" as="offset" />
          </mxGeometry>
        </mxCell>
        <mxCell id="BKiBQ52J1VdA8qQZ-0-i-217" value="" style="html=1;points=[[0,0,0,0,5],[0,1,0,0,-5],[1,0,0,0,5],[1,1,0,0,-5]];perimeter=orthogonalPerimeter;outlineConnect=0;targetShapes=umlLifeline;portConstraint=eastwest;newEdgeStyle={&quot;curved&quot;:0,&quot;rounded&quot;:0};" vertex="1" parent="BKiBQ52J1VdA8qQZ-0-i-213">
          <mxGeometry x="20" y="100" width="10" height="60" as="geometry" />
        </mxCell>
        <mxCell id="BKiBQ52J1VdA8qQZ-0-i-218" value="" style="html=1;points=[[0,0,0,0,5],[0,1,0,0,-5],[1,0,0,0,5],[1,1,0,0,-5]];perimeter=orthogonalPerimeter;outlineConnect=0;targetShapes=umlLifeline;portConstraint=eastwest;newEdgeStyle={&quot;curved&quot;:0,&quot;rounded&quot;:0};" vertex="1" parent="BKiBQ52J1VdA8qQZ-0-i-213">
          <mxGeometry x="20" y="300" width="10" height="30" as="geometry" />
        </mxCell>
        <mxCell id="BKiBQ52J1VdA8qQZ-0-i-219" style="edgeStyle=orthogonalEdgeStyle;rounded=0;orthogonalLoop=1;jettySize=auto;html=1;curved=0;entryX=1;entryY=0;entryDx=0;entryDy=5;entryPerimeter=0;" edge="1" parent="BKiBQ52J1VdA8qQZ-0-i-213" source="BKiBQ52J1VdA8qQZ-0-i-214" target="BKiBQ52J1VdA8qQZ-0-i-218">
          <mxGeometry relative="1" as="geometry">
            <mxPoint x="25" y="280" as="sourcePoint" />
            <mxPoint x="30" y="300" as="targetPoint" />
            <Array as="points">
              <mxPoint x="60" y="280" />
              <mxPoint x="60" y="305" />
            </Array>
          </mxGeometry>
        </mxCell>
        <mxCell id="BKiBQ52J1VdA8qQZ-0-i-220" value="&lt;span style=&quot;font-size: 10px;&quot;&gt;1.1.1.3: debt = updateDebt&lt;br&gt;(amount): Debt&lt;/span&gt;" style="edgeLabel;html=1;align=center;verticalAlign=middle;resizable=0;points=[];" vertex="1" connectable="0" parent="BKiBQ52J1VdA8qQZ-0-i-219">
          <mxGeometry x="-0.1633" relative="1" as="geometry">
            <mxPoint x="70" y="15" as="offset" />
          </mxGeometry>
        </mxCell>
        <mxCell id="BKiBQ52J1VdA8qQZ-0-i-221" value=":LoanAndDebtServiceImpl" style="text;html=1;align=center;verticalAlign=middle;resizable=0;points=[];autosize=1;strokeColor=none;fillColor=none;" vertex="1" parent="1">
          <mxGeometry x="320" y="1690" width="160" height="30" as="geometry" />
        </mxCell>
        <mxCell id="BKiBQ52J1VdA8qQZ-0-i-222" value="" style="shape=umlLifeline;perimeter=lifelinePerimeter;whiteSpace=wrap;html=1;container=1;dropTarget=0;collapsible=0;recursiveResize=0;outlineConnect=0;portConstraint=eastwest;newEdgeStyle={&quot;curved&quot;:0,&quot;rounded&quot;:0};participant=umlControl;" vertex="1" parent="1">
          <mxGeometry x="525" y="1720" width="40" height="730" as="geometry" />
        </mxCell>
        <mxCell id="BKiBQ52J1VdA8qQZ-0-i-223" value="" style="html=1;points=[[0,0,0,0,5],[0,1,0,0,-5],[1,0,0,0,5],[1,1,0,0,-5]];perimeter=orthogonalPerimeter;outlineConnect=0;targetShapes=umlLifeline;portConstraint=eastwest;newEdgeStyle={&quot;curved&quot;:0,&quot;rounded&quot;:0};" vertex="1" parent="BKiBQ52J1VdA8qQZ-0-i-222">
          <mxGeometry x="15" y="450" width="10" height="110" as="geometry" />
        </mxCell>
        <mxCell id="BKiBQ52J1VdA8qQZ-0-i-224" value=":ExchangeServiceImpl" style="text;html=1;align=center;verticalAlign=middle;resizable=0;points=[];autosize=1;strokeColor=none;fillColor=none;" vertex="1" parent="1">
          <mxGeometry x="475" y="1690" width="140" height="30" as="geometry" />
        </mxCell>
        <mxCell id="BKiBQ52J1VdA8qQZ-0-i-225" value=":WalletServiceImpl" style="text;html=1;align=center;verticalAlign=middle;resizable=0;points=[];autosize=1;strokeColor=none;fillColor=none;" vertex="1" parent="1">
          <mxGeometry x="635" y="1688" width="120" height="30" as="geometry" />
        </mxCell>
        <mxCell id="BKiBQ52J1VdA8qQZ-0-i-226" value="" style="shape=umlLifeline;perimeter=lifelinePerimeter;whiteSpace=wrap;html=1;container=1;dropTarget=0;collapsible=0;recursiveResize=0;outlineConnect=0;portConstraint=eastwest;newEdgeStyle={&quot;curved&quot;:0,&quot;rounded&quot;:0};participant=umlEntity;" vertex="1" parent="1">
          <mxGeometry x="815" y="1720" width="40" height="370" as="geometry" />
        </mxCell>
        <mxCell id="BKiBQ52J1VdA8qQZ-0-i-227" value="" style="html=1;points=[[0,0,0,0,5],[0,1,0,0,-5],[1,0,0,0,5],[1,1,0,0,-5]];perimeter=orthogonalPerimeter;outlineConnect=0;targetShapes=umlLifeline;portConstraint=eastwest;newEdgeStyle={&quot;curved&quot;:0,&quot;rounded&quot;:0};" vertex="1" parent="BKiBQ52J1VdA8qQZ-0-i-226">
          <mxGeometry x="15" y="110" width="10" height="30" as="geometry" />
        </mxCell>
        <mxCell id="BKiBQ52J1VdA8qQZ-0-i-228" value="" style="html=1;points=[[0,0,0,0,5],[0,1,0,0,-5],[1,0,0,0,5],[1,1,0,0,-5]];perimeter=orthogonalPerimeter;outlineConnect=0;targetShapes=umlLifeline;portConstraint=eastwest;newEdgeStyle={&quot;curved&quot;:0,&quot;rounded&quot;:0};" vertex="1" parent="BKiBQ52J1VdA8qQZ-0-i-226">
          <mxGeometry x="15" y="330" width="10" height="30" as="geometry" />
        </mxCell>
        <mxCell id="BKiBQ52J1VdA8qQZ-0-i-229" value="DebtRepo" style="text;html=1;align=center;verticalAlign=middle;resizable=0;points=[];autosize=1;strokeColor=none;fillColor=none;" vertex="1" parent="1">
          <mxGeometry x="795" y="1688" width="80" height="30" as="geometry" />
        </mxCell>
        <mxCell id="BKiBQ52J1VdA8qQZ-0-i-230" value="" style="shape=umlLifeline;perimeter=lifelinePerimeter;whiteSpace=wrap;html=1;container=1;dropTarget=0;collapsible=0;recursiveResize=0;outlineConnect=0;portConstraint=eastwest;newEdgeStyle={&quot;curved&quot;:0,&quot;rounded&quot;:0};participant=umlEntity;" vertex="1" parent="1">
          <mxGeometry x="955" y="1720" width="40" height="570" as="geometry" />
        </mxCell>
        <mxCell id="BKiBQ52J1VdA8qQZ-0-i-231" value=":WalletRepo" style="text;html=1;align=center;verticalAlign=middle;resizable=0;points=[];autosize=1;strokeColor=none;fillColor=none;" vertex="1" parent="1">
          <mxGeometry x="930" y="1688" width="90" height="30" as="geometry" />
        </mxCell>
        <mxCell id="BKiBQ52J1VdA8qQZ-0-i-232" value="" style="shape=umlLifeline;perimeter=lifelinePerimeter;whiteSpace=wrap;html=1;container=1;dropTarget=0;collapsible=0;recursiveResize=0;outlineConnect=0;portConstraint=eastwest;newEdgeStyle={&quot;curved&quot;:0,&quot;rounded&quot;:0};participant=umlEntity;" vertex="1" parent="1">
          <mxGeometry x="1105" y="1720" width="40" height="720" as="geometry" />
        </mxCell>
        <mxCell id="BKiBQ52J1VdA8qQZ-0-i-233" value=":ExchangeRepo" style="text;html=1;align=center;verticalAlign=middle;resizable=0;points=[];autosize=1;strokeColor=none;fillColor=none;" vertex="1" parent="1">
          <mxGeometry x="1070" y="1688" width="110" height="30" as="geometry" />
        </mxCell>
        <mxCell id="BKiBQ52J1VdA8qQZ-0-i-234" value="" style="shape=umlLifeline;perimeter=lifelinePerimeter;whiteSpace=wrap;html=1;container=1;dropTarget=0;collapsible=0;recursiveResize=0;outlineConnect=0;portConstraint=eastwest;newEdgeStyle={&quot;curved&quot;:0,&quot;rounded&quot;:0};participant=umlActor;" vertex="1" parent="1">
          <mxGeometry x="-30" y="1720" width="20" height="750" as="geometry" />
        </mxCell>
        <mxCell id="BKiBQ52J1VdA8qQZ-0-i-235" value="" style="html=1;points=[[0,0,0,0,5],[0,1,0,0,-5],[1,0,0,0,5],[1,1,0,0,-5]];perimeter=orthogonalPerimeter;outlineConnect=0;targetShapes=umlLifeline;portConstraint=eastwest;newEdgeStyle={&quot;curved&quot;:0,&quot;rounded&quot;:0};" vertex="1" parent="BKiBQ52J1VdA8qQZ-0-i-234">
          <mxGeometry x="5" y="50" width="10" height="700" as="geometry" />
        </mxCell>
        <mxCell id="BKiBQ52J1VdA8qQZ-0-i-236" value="" style="shape=umlLifeline;perimeter=lifelinePerimeter;whiteSpace=wrap;html=1;container=1;dropTarget=0;collapsible=0;recursiveResize=0;outlineConnect=0;portConstraint=eastwest;newEdgeStyle={&quot;curved&quot;:0,&quot;rounded&quot;:0};participant=umlBoundary;" vertex="1" parent="1">
          <mxGeometry x="90" y="1720" width="50" height="750" as="geometry" />
        </mxCell>
        <mxCell id="BKiBQ52J1VdA8qQZ-0-i-237" value="" style="html=1;points=[[0,0,0,0,5],[0,1,0,0,-5],[1,0,0,0,5],[1,1,0,0,-5]];perimeter=orthogonalPerimeter;outlineConnect=0;targetShapes=umlLifeline;portConstraint=eastwest;newEdgeStyle={&quot;curved&quot;:0,&quot;rounded&quot;:0};" vertex="1" parent="BKiBQ52J1VdA8qQZ-0-i-236">
          <mxGeometry x="20" y="60" width="10" height="690" as="geometry" />
        </mxCell>
        <mxCell id="BKiBQ52J1VdA8qQZ-0-i-238" value="&lt;span style=&quot;font-size: 10px;&quot;&gt;1.1: payADebt(request&lt;/span&gt;&lt;br style=&quot;font-size: 10px;&quot;&gt;&lt;span style=&quot;font-size: 10px;&quot;&gt;, debtId): Debt&lt;/span&gt;" style="html=1;verticalAlign=bottom;endArrow=block;curved=0;rounded=0;entryX=0;entryY=0;entryDx=0;entryDy=5;entryPerimeter=0;" edge="1" parent="1" source="BKiBQ52J1VdA8qQZ-0-i-237" target="BKiBQ52J1VdA8qQZ-0-i-211">
          <mxGeometry x="0.037" y="-35" width="80" relative="1" as="geometry">
            <mxPoint x="140" y="1800" as="sourcePoint" />
            <mxPoint x="220" y="1800" as="targetPoint" />
            <mxPoint as="offset" />
          </mxGeometry>
        </mxCell>
        <mxCell id="BKiBQ52J1VdA8qQZ-0-i-239" value="&lt;span style=&quot;font-size: 10px;&quot;&gt;1.1.1: payForADebt(amount&lt;/span&gt;&lt;span style=&quot;font-size: 10px;&quot;&gt;, debtId): Debt&lt;/span&gt;" style="html=1;verticalAlign=bottom;endArrow=block;curved=0;rounded=0;entryX=0;entryY=0;entryDx=0;entryDy=5;entryPerimeter=0;" edge="1" parent="1" source="BKiBQ52J1VdA8qQZ-0-i-211" target="BKiBQ52J1VdA8qQZ-0-i-214">
          <mxGeometry x="0.4615" y="5" width="80" relative="1" as="geometry">
            <mxPoint x="270" y="1800" as="sourcePoint" />
            <mxPoint x="399.99999999999955" y="1800" as="targetPoint" />
            <mxPoint as="offset" />
          </mxGeometry>
        </mxCell>
        <mxCell id="BKiBQ52J1VdA8qQZ-0-i-240" value="&lt;font style=&quot;font-size: 10px;&quot;&gt;1.1.1.2: findById(id): Debt&lt;/font&gt;" style="html=1;verticalAlign=bottom;endArrow=block;curved=0;rounded=0;entryX=0;entryY=0;entryDx=0;entryDy=5;entryPerimeter=0;" edge="1" parent="1" source="BKiBQ52J1VdA8qQZ-0-i-217" target="BKiBQ52J1VdA8qQZ-0-i-227">
          <mxGeometry x="0.1538" y="5" width="80" relative="1" as="geometry">
            <mxPoint x="420" y="1815" as="sourcePoint" />
            <mxPoint x="550" y="1815" as="targetPoint" />
            <mxPoint as="offset" />
          </mxGeometry>
        </mxCell>
        <mxCell id="BKiBQ52J1VdA8qQZ-0-i-241" value="" style="html=1;verticalAlign=bottom;endArrow=open;dashed=1;endSize=8;curved=0;rounded=0;exitX=0;exitY=1;exitDx=0;exitDy=-5;exitPerimeter=0;" edge="1" parent="1" source="BKiBQ52J1VdA8qQZ-0-i-227" target="BKiBQ52J1VdA8qQZ-0-i-217">
          <mxGeometry relative="1" as="geometry">
            <mxPoint x="670" y="1840" as="sourcePoint" />
            <mxPoint x="590" y="1840" as="targetPoint" />
          </mxGeometry>
        </mxCell>
        <mxCell id="BKiBQ52J1VdA8qQZ-0-i-242" value=":User" style="text;html=1;align=center;verticalAlign=middle;resizable=0;points=[];autosize=1;strokeColor=none;fillColor=none;" vertex="1" parent="1">
          <mxGeometry x="-45" y="1690" width="50" height="30" as="geometry" />
        </mxCell>
        <mxCell id="BKiBQ52J1VdA8qQZ-0-i-243" value="" style="html=1;verticalAlign=bottom;endArrow=open;dashed=1;endSize=8;curved=0;rounded=0;exitX=0;exitY=1;exitDx=0;exitDy=-5;exitPerimeter=0;" edge="1" parent="1" source="BKiBQ52J1VdA8qQZ-0-i-217" target="BKiBQ52J1VdA8qQZ-0-i-211">
          <mxGeometry relative="1" as="geometry">
            <mxPoint x="525" y="1855" as="sourcePoint" />
            <mxPoint x="100" y="1855" as="targetPoint" />
          </mxGeometry>
        </mxCell>
        <mxCell id="BKiBQ52J1VdA8qQZ-0-i-244" value="" style="html=1;verticalAlign=bottom;endArrow=open;dashed=1;endSize=8;curved=0;rounded=0;" edge="1" parent="1">
          <mxGeometry relative="1" as="geometry">
            <mxPoint x="255" y="1889.73" as="sourcePoint" />
            <mxPoint x="120" y="1889.73" as="targetPoint" />
          </mxGeometry>
        </mxCell>
        <mxCell id="BKiBQ52J1VdA8qQZ-0-i-245" value="" style="html=1;verticalAlign=bottom;endArrow=open;dashed=1;endSize=8;curved=0;rounded=0;" edge="1" parent="1" target="BKiBQ52J1VdA8qQZ-0-i-235">
          <mxGeometry relative="1" as="geometry">
            <mxPoint x="110" y="1900" as="sourcePoint" />
            <mxPoint y="1900" as="targetPoint" />
          </mxGeometry>
        </mxCell>
        <mxCell id="BKiBQ52J1VdA8qQZ-0-i-246" value="" style="html=1;verticalAlign=bottom;endArrow=open;dashed=1;endSize=8;curved=0;rounded=0;exitX=0;exitY=1;exitDx=0;exitDy=-5;exitPerimeter=0;" edge="1" parent="1" source="BKiBQ52J1VdA8qQZ-0-i-237" target="BKiBQ52J1VdA8qQZ-0-i-235">
          <mxGeometry relative="1" as="geometry">
            <mxPoint x="125" y="2460" as="sourcePoint" />
            <mxPoint x="-10" y="2460" as="targetPoint" />
          </mxGeometry>
        </mxCell>
        <mxCell id="BKiBQ52J1VdA8qQZ-0-i-247" value="alt" style="shape=umlFrame;whiteSpace=wrap;html=1;pointerEvents=0;width=50;height=20;" vertex="1" parent="1">
          <mxGeometry x="-45" y="1860" width="485" height="50" as="geometry" />
        </mxCell>
        <mxCell id="BKiBQ52J1VdA8qQZ-0-i-248" value="&lt;font style=&quot;font-size: 10px;&quot;&gt;(debt== null)&lt;/font&gt;" style="text;html=1;align=center;verticalAlign=middle;resizable=0;points=[];autosize=1;strokeColor=none;fillColor=none;" vertex="1" parent="1">
          <mxGeometry x="5" y="1860" width="80" height="30" as="geometry" />
        </mxCell>
        <mxCell id="BKiBQ52J1VdA8qQZ-0-i-249" value="alt" style="shape=umlFrame;whiteSpace=wrap;html=1;pointerEvents=0;width=50;height=20;" vertex="1" parent="1">
          <mxGeometry x="-45" y="1920" width="485" height="70" as="geometry" />
        </mxCell>
        <mxCell id="BKiBQ52J1VdA8qQZ-0-i-250" value="&lt;font style=&quot;font-size: 10px;&quot;&gt;(debt.getOpenStatus() == false ||&lt;/font&gt;&lt;div&gt;&lt;font style=&quot;font-size: 10px;&quot;&gt;amount &amp;gt;= debt.getCurrentAmount())&lt;/font&gt;&lt;/div&gt;" style="text;html=1;align=center;verticalAlign=middle;resizable=0;points=[];autosize=1;strokeColor=none;fillColor=none;" vertex="1" parent="1">
          <mxGeometry x="-20" y="1920" width="190" height="40" as="geometry" />
        </mxCell>
        <mxCell id="BKiBQ52J1VdA8qQZ-0-i-251" value="" style="html=1;verticalAlign=bottom;endArrow=open;dashed=1;endSize=8;curved=0;rounded=0;exitX=0;exitY=1;exitDx=0;exitDy=-5;exitPerimeter=0;" edge="1" parent="1" target="BKiBQ52J1VdA8qQZ-0-i-211">
          <mxGeometry relative="1" as="geometry">
            <mxPoint x="395" y="1934.5" as="sourcePoint" />
            <mxPoint x="260" y="1934.5" as="targetPoint" />
          </mxGeometry>
        </mxCell>
        <mxCell id="BKiBQ52J1VdA8qQZ-0-i-252" value="" style="html=1;verticalAlign=bottom;endArrow=open;dashed=1;endSize=8;curved=0;rounded=0;" edge="1" parent="1">
          <mxGeometry relative="1" as="geometry">
            <mxPoint x="255" y="1960" as="sourcePoint" />
            <mxPoint x="120" y="1960" as="targetPoint" />
          </mxGeometry>
        </mxCell>
        <mxCell id="BKiBQ52J1VdA8qQZ-0-i-253" value="" style="html=1;verticalAlign=bottom;endArrow=open;dashed=1;endSize=8;curved=0;rounded=0;" edge="1" parent="1" target="BKiBQ52J1VdA8qQZ-0-i-235">
          <mxGeometry relative="1" as="geometry">
            <mxPoint x="110" y="1980" as="sourcePoint" />
            <mxPoint x="-10.000000000000227" y="1980" as="targetPoint" />
          </mxGeometry>
        </mxCell>
        <mxCell id="BKiBQ52J1VdA8qQZ-0-i-254" value="&lt;font style=&quot;font-size: 10px;&quot;&gt;1.1.1.4: save(debt): Debt&lt;/font&gt;" style="html=1;verticalAlign=bottom;endArrow=block;curved=0;rounded=0;entryX=0;entryY=0;entryDx=0;entryDy=5;entryPerimeter=0;" edge="1" parent="1" source="BKiBQ52J1VdA8qQZ-0-i-214" target="BKiBQ52J1VdA8qQZ-0-i-228">
          <mxGeometry x="0.1538" y="5" width="80" relative="1" as="geometry">
            <mxPoint x="400" y="2060" as="sourcePoint" />
            <mxPoint x="820" y="2060" as="targetPoint" />
            <mxPoint as="offset" />
          </mxGeometry>
        </mxCell>
        <mxCell id="BKiBQ52J1VdA8qQZ-0-i-255" value="" style="html=1;verticalAlign=bottom;endArrow=open;dashed=1;endSize=8;curved=0;rounded=0;exitX=0;exitY=1;exitDx=0;exitDy=-5;exitPerimeter=0;" edge="1" parent="1" source="BKiBQ52J1VdA8qQZ-0-i-228" target="BKiBQ52J1VdA8qQZ-0-i-214">
          <mxGeometry relative="1" as="geometry">
            <mxPoint x="830" y="2070" as="sourcePoint" />
            <mxPoint x="410" y="2070" as="targetPoint" />
          </mxGeometry>
        </mxCell>
        <mxCell id="BKiBQ52J1VdA8qQZ-0-i-256" value="" style="html=1;verticalAlign=bottom;endArrow=open;dashed=1;endSize=8;curved=0;rounded=0;exitX=0;exitY=1;exitDx=0;exitDy=-5;exitPerimeter=0;" edge="1" parent="1" source="BKiBQ52J1VdA8qQZ-0-i-214" target="BKiBQ52J1VdA8qQZ-0-i-211">
          <mxGeometry relative="1" as="geometry">
            <mxPoint x="395" y="2079.41" as="sourcePoint" />
            <mxPoint x="-30" y="2079.41" as="targetPoint" />
          </mxGeometry>
        </mxCell>
        <mxCell id="BKiBQ52J1VdA8qQZ-0-i-257" value=":Exchange&lt;br&gt;DTO" style="shape=umlLifeline;perimeter=lifelinePerimeter;whiteSpace=wrap;html=1;container=1;dropTarget=0;collapsible=0;recursiveResize=0;outlineConnect=0;portConstraint=eastwest;newEdgeStyle={&quot;curved&quot;:0,&quot;rounded&quot;:0};" vertex="1" parent="1">
          <mxGeometry x="430" y="2080" width="70" height="90" as="geometry" />
        </mxCell>
        <mxCell id="BKiBQ52J1VdA8qQZ-0-i-258" value="" style="html=1;points=[[0,0,0,0,5],[0,1,0,0,-5],[1,0,0,0,5],[1,1,0,0,-5]];perimeter=orthogonalPerimeter;outlineConnect=0;targetShapes=umlLifeline;portConstraint=eastwest;newEdgeStyle={&quot;curved&quot;:0,&quot;rounded&quot;:0};" vertex="1" parent="BKiBQ52J1VdA8qQZ-0-i-257">
          <mxGeometry x="30" y="50" width="10" height="30" as="geometry" />
        </mxCell>
        <mxCell id="BKiBQ52J1VdA8qQZ-0-i-259" value="&lt;font style=&quot;font-size: 10px;&quot;&gt;1.1.2: exchangeDTO = new ExchangeDTO(request): ExchangeDTO&lt;/font&gt;" style="html=1;verticalAlign=bottom;endArrow=block;curved=0;rounded=0;entryX=0.152;entryY=-0.025;entryDx=0;entryDy=0;entryPerimeter=0;" edge="1" parent="1" source="BKiBQ52J1VdA8qQZ-0-i-211" target="BKiBQ52J1VdA8qQZ-0-i-258">
          <mxGeometry x="-0.4403" y="-21" width="80" relative="1" as="geometry">
            <mxPoint x="240" y="2160" as="sourcePoint" />
            <mxPoint x="665" y="2160" as="targetPoint" />
            <mxPoint as="offset" />
          </mxGeometry>
        </mxCell>
        <mxCell id="BKiBQ52J1VdA8qQZ-0-i-260" value="" style="html=1;verticalAlign=bottom;endArrow=open;dashed=1;endSize=8;curved=0;rounded=0;exitX=0;exitY=1;exitDx=0;exitDy=-5;exitPerimeter=0;" edge="1" parent="1" source="BKiBQ52J1VdA8qQZ-0-i-258" target="BKiBQ52J1VdA8qQZ-0-i-211">
          <mxGeometry relative="1" as="geometry">
            <mxPoint x="410" y="2160" as="sourcePoint" />
            <mxPoint x="280" y="2160" as="targetPoint" />
          </mxGeometry>
        </mxCell>
        <mxCell id="BKiBQ52J1VdA8qQZ-0-i-261" value="&lt;font style=&quot;font-size: 10px;&quot;&gt;1.1.2: createWalletDebtExchange(exchangeDTO): void&lt;/font&gt;" style="html=1;verticalAlign=bottom;endArrow=block;curved=0;rounded=0;entryX=0;entryY=0;entryDx=0;entryDy=5;entryPerimeter=0;" edge="1" parent="1" source="BKiBQ52J1VdA8qQZ-0-i-211" target="BKiBQ52J1VdA8qQZ-0-i-223">
          <mxGeometry x="0.0545" y="-25" width="80" relative="1" as="geometry">
            <mxPoint x="278" y="2180" as="sourcePoint" />
            <mxPoint x="475" y="2180" as="targetPoint" />
            <mxPoint as="offset" />
          </mxGeometry>
        </mxCell>
        <mxCell id="BKiBQ52J1VdA8qQZ-0-i-262" value="" style="shape=umlLifeline;perimeter=lifelinePerimeter;whiteSpace=wrap;html=1;container=1;dropTarget=0;collapsible=0;recursiveResize=0;outlineConnect=0;portConstraint=eastwest;newEdgeStyle={&quot;curved&quot;:0,&quot;rounded&quot;:0};participant=umlControl;" vertex="1" parent="1">
          <mxGeometry x="675" y="1718" width="40" height="630" as="geometry" />
        </mxCell>
        <mxCell id="BKiBQ52J1VdA8qQZ-0-i-263" value="" style="html=1;points=[[0,0,0,0,5],[0,1,0,0,-5],[1,0,0,0,5],[1,1,0,0,-5]];perimeter=orthogonalPerimeter;outlineConnect=0;targetShapes=umlLifeline;portConstraint=eastwest;newEdgeStyle={&quot;curved&quot;:0,&quot;rounded&quot;:0};" vertex="1" parent="BKiBQ52J1VdA8qQZ-0-i-262">
          <mxGeometry x="15" y="462" width="10" height="68" as="geometry" />
        </mxCell>
        <mxCell id="BKiBQ52J1VdA8qQZ-0-i-264" value="" style="html=1;points=[[0,0,0,0,5],[0,1,0,0,-5],[1,0,0,0,5],[1,1,0,0,-5]];perimeter=orthogonalPerimeter;outlineConnect=0;targetShapes=umlLifeline;portConstraint=eastwest;newEdgeStyle={&quot;curved&quot;:0,&quot;rounded&quot;:0};" vertex="1" parent="BKiBQ52J1VdA8qQZ-0-i-262">
          <mxGeometry x="15" y="570" width="10" height="50" as="geometry" />
        </mxCell>
        <mxCell id="BKiBQ52J1VdA8qQZ-0-i-265" value="" style="html=1;verticalAlign=bottom;endArrow=open;dashed=1;endSize=8;curved=0;rounded=0;exitX=0;exitY=1;exitDx=0;exitDy=-5;exitPerimeter=0;" edge="1" parent="1" source="BKiBQ52J1VdA8qQZ-0-i-202" target="BKiBQ52J1VdA8qQZ-0-i-104">
          <mxGeometry relative="1" as="geometry">
            <mxPoint x="475" y="1430" as="sourcePoint" />
            <mxPoint x="280" y="1430" as="targetPoint" />
          </mxGeometry>
        </mxCell>
        <mxCell id="BKiBQ52J1VdA8qQZ-0-i-266" value="" style="html=1;verticalAlign=bottom;endArrow=open;dashed=1;endSize=8;curved=0;rounded=0;exitX=0;exitY=1;exitDx=0;exitDy=-5;exitPerimeter=0;" edge="1" parent="1" source="BKiBQ52J1VdA8qQZ-0-i-104" target="BKiBQ52J1VdA8qQZ-0-i-137">
          <mxGeometry relative="1" as="geometry">
            <mxPoint x="245" y="1480" as="sourcePoint" />
            <mxPoint x="50" y="1480" as="targetPoint" />
          </mxGeometry>
        </mxCell>
      </root>
    </mxGraphModel>
  </diagram>
</mxfile>
